<svg width="16" height="18" viewBox="0 0 16 18" fill="none" xmlns="http://www.w3.org/2000/svg">
<g clip-path="url(#clip0_86_5629)">
<path d="M9.14314 1.28571C9.14314 0.575634 8.63146 0 8.00028 0C7.3691 0 6.85742 0.575634 6.85742 1.28571V16.7143C6.85742 17.4244 7.3691 18 8.00028 18C8.63146 18 9.14314 17.4244 9.14314 16.7143V1.28571Z" fill="black"/>
<path d="M14.8571 10.2857C15.4883 10.2857 16 9.71003 16 8.99995C16 8.28987 15.4883 7.71423 14.8571 7.71423L1.14286 7.71423C0.511674 7.71423 0 8.28987 0 8.99995C0 9.71003 0.511674 10.2857 1.14286 10.2857H14.8571Z" fill="black"/>
</g>
<defs>
<clipPath id="clip0_86_5629">
<rect width="16" height="18" fill="white"/>
</clipPath>
</defs>
</svg>
