<svg width="79" height="79" viewBox="0 0 79 79" fill="none" xmlns="http://www.w3.org/2000/svg">
<g filter="url(#filter0_d_53_4202)">
<path fill-rule="evenodd" clip-rule="evenodd" d="M39.8125 63C54.1719 63 65.8125 51.3594 65.8125 37C65.8125 22.6406 54.1719 11 39.8125 11C25.4531 11 13.8125 22.6406 13.8125 37C13.8125 51.3594 25.4531 63 39.8125 63Z" fill="#634700"/>
</g>
<path fill-rule="evenodd" clip-rule="evenodd" d="M43.3207 30.4488C42.8289 30.2932 42.2633 30.1895 41.7469 30.1895C41.1076 30.1895 39.7305 30.6303 39.7305 31.486V33.5346H43.001V36.9834H39.7305V46.5H36.4355V36.9834H34.8125V33.5346H36.4355V31.7972C36.4355 29.1782 37.5666 27 40.2961 27C41.2305 27 42.9027 27.0519 43.8125 27.389L43.3207 30.4488Z" fill="white"/>
<defs>
<filter id="filter0_d_53_4202" x="0.6875" y="0.5" width="78.25" height="78.25" filterUnits="userSpaceOnUse" color-interpolation-filters="sRGB">
<feFlood flood-opacity="0" result="BackgroundImageFix"/>
<feColorMatrix in="SourceAlpha" type="matrix" values="0 0 0 0 0 0 0 0 0 0 0 0 0 0 0 0 0 0 127 0" result="hardAlpha"/>
<feOffset dy="2.625"/>
<feGaussianBlur stdDeviation="6.5625"/>
<feColorMatrix type="matrix" values="0 0 0 0 0 0 0 0 0 0 0 0 0 0 0 0 0 0 0.1 0"/>
<feBlend mode="normal" in2="BackgroundImageFix" result="effect1_dropShadow_53_4202"/>
<feBlend mode="normal" in="SourceGraphic" in2="effect1_dropShadow_53_4202" result="shape"/>
</filter>
</defs>
</svg>
