<svg width="134" height="54" viewBox="0 0 134 54" fill="none" xmlns="http://www.w3.org/2000/svg">
<g clip-path="url(#clip0_18_3840)">
<path fill-rule="evenodd" clip-rule="evenodd" d="M0.213623 7.94838H8.82377V30.8346C8.82377 34.4565 10.4965 36.6139 11.8193 37.5387C10.4189 38.7716 6.13962 39.8505 2.94962 37.2304C1.06891 35.686 0.213623 33.1464 0.213623 30.7575V7.94838ZM54.0236 26.9594V24.5543H56.6496V16.1166H53.7658C52.6588 11.0508 48.1051 7.25476 42.6591 7.25476C36.3854 7.25476 31.2998 12.2919 31.2998 18.5053V38.2099C33.0872 38.4587 35.2165 38.179 37.0282 36.6911C38.9086 35.1464 39.7639 32.6071 39.7639 30.2182V29.4922H44.0641V21.0545H39.7639V18.5053H39.7742C39.7742 16.9274 41.0657 15.6482 42.6591 15.6482C44.2523 15.6482 45.549 16.9274 45.549 18.5053V26.9594C45.549 33.1728 50.64 38.2099 56.9134 38.2099V29.8165C55.3203 29.8165 54.0236 28.5373 54.0236 26.9594ZM21.4139 16.1166V28.4999C21.4139 29.2028 20.825 29.7728 20.0983 29.7728C19.3716 29.7728 18.7827 29.2028 18.7827 28.4999V16.1166H10.2631V30.6806C10.2631 33.3004 11.1602 36.6139 15.2427 37.6928C19.3295 38.7728 21.7003 36.537 21.7003 36.537C21.4844 38.0099 20.0837 39.0888 17.8275 39.32C16.1203 39.4948 13.9372 38.9348 12.8481 38.4723V46.1884C15.6231 46.9989 18.5582 47.2607 21.4305 46.7087C26.6433 45.707 29.9332 41.3918 29.9332 35.6508V16.1166H21.4139Z" fill="#403F42"/>
</g>
<defs>
<clipPath id="clip0_18_3840">
<rect width="57" height="40" fill="white" transform="translate(0 7)"/>
</clipPath>
</defs>
</svg>
