<svg width="134" height="54" viewBox="0 0 134 54" fill="none" xmlns="http://www.w3.org/2000/svg">
<g clip-path="url(#clip0_18_3828)">
<path d="M77.1401 28.0289C77.1401 24.8688 75.792 22.0766 71.2326 22.0766C68.8935 22.0766 67.0353 22.7456 66.0278 23.3312L66.7662 25.8665C67.6938 25.2826 69.1739 24.8017 70.5708 24.8017C72.879 24.7984 73.2572 26.1086 73.2572 26.951V27.1538C68.2186 27.1457 65.0335 28.8926 65.0335 32.4502C65.0335 34.6241 66.6505 36.6622 69.4771 36.6622C71.2017 36.6622 72.659 35.9637 73.5294 34.8613H73.6142C73.6142 34.8613 74.188 37.2706 77.3618 36.3497C77.2004 35.3405 77.1401 34.2773 77.1401 32.9851V28.0289ZM73.3812 31.3658C73.3812 31.6209 73.36 31.8859 73.285 32.1133C72.9948 33.0865 71.9939 33.9011 70.7485 33.9011C69.6972 33.9011 68.8723 33.3041 68.8723 32.0528C68.8723 30.139 70.9783 29.6123 73.3812 29.6254" fill="#403F42"/>
<path d="M0 17.7769C0 17.7769 3.2911 31.2877 3.81438 33.4763C4.43053 36.0345 5.5341 36.98 8.71929 36.3502L10.7764 27.9722C11.2964 25.8965 11.6501 24.408 11.986 22.293H12.043C12.2761 24.4293 12.6119 25.8965 13.0373 27.9787C13.0373 27.9787 13.8768 31.785 14.3121 33.7789C14.7359 35.7728 15.9291 37.0307 19.054 36.3502L23.9507 17.7769H19.9978L18.3172 25.8114C17.8722 28.139 17.4679 29.9726 17.1533 32.1056H17.0962C16.8126 29.9955 16.4524 28.2372 15.9894 25.957L14.2485 17.7769H10.1244L8.2661 25.7476C7.7363 28.1816 7.24078 30.1329 6.92942 32.1988H6.87565C6.55454 30.2605 6.11931 27.7923 5.65796 25.4499C5.65796 25.4499 4.5544 19.743 4.16484 17.7769" fill="#403F42"/>
<path d="M34.9669 28.0289C34.9669 24.8688 33.6155 22.0766 29.0562 22.0766C26.7236 22.0766 24.862 22.7456 23.8547 23.3312L24.593 25.8665C25.5173 25.2826 26.9958 24.8017 28.3977 24.8017C30.7058 24.7984 31.084 26.1086 31.084 26.951V27.1538C26.0455 27.1457 22.8571 28.8926 22.8571 32.4502C22.8571 34.6241 24.4806 36.6622 27.2941 36.6622C29.035 36.6622 30.4793 35.9637 31.3498 34.8613H31.4377C31.4377 34.8613 32.0148 37.2706 35.1853 36.3497C35.0223 35.3405 34.9669 34.2773 34.9669 32.9851V28.0289ZM31.2047 31.3658C31.2047 31.6209 31.1835 31.8859 31.1118 32.1133C30.8183 33.0865 29.8175 33.9011 28.5688 33.9011C27.5239 33.9011 26.6959 33.3041 26.6959 32.0528C26.6959 30.139 28.8019 29.6123 31.2047 29.6254" fill="#403F42"/>
<path d="M37.0181 17.7769V36.3437H40.7803V17.7769H37.0181Z" fill="#403F42"/>
<path d="M88.6868 17.7769V31.4758C88.6868 33.3667 89.0405 34.6851 89.8017 35.4931C90.4701 36.2014 91.5638 36.6626 92.8663 36.6626C93.9846 36.6626 95.0783 36.4467 95.5951 36.2586L95.5494 33.3095C95.1631 33.3994 94.7213 33.4763 94.1149 33.4763C92.8305 33.4763 92.4066 32.6601 92.4066 30.9622V25.7182H95.6831V22.1704H92.4066V17.7769" fill="#403F42"/>
<path d="M78.9628 22.3989V36.3497H82.8521V29.205C82.8521 28.8206 82.8765 28.4886 82.9369 28.1811C83.227 26.6746 84.3664 25.721 86.0079 25.721C86.466 25.721 86.7773 25.7717 87.1229 25.8257V22.1682C86.8327 22.1159 86.6355 22.0881 86.2785 22.0881C84.8229 22.0881 83.1732 23.0155 82.4771 25.0356H82.381V22.3989" fill="#403F42"/>
<path d="M42.9651 22.3989V36.3497H46.7549V28.1614C46.7549 27.777 46.7973 27.3845 46.9326 27.0295C47.2407 26.2002 48.0052 25.2401 49.2327 25.2401C50.7584 25.2401 51.4789 26.5323 51.4789 28.397V36.3497H55.2591V28.0633C55.2591 27.7018 55.3096 27.2585 55.4155 26.9379C55.7187 25.9974 56.5468 25.2401 57.6912 25.2401C59.2332 25.2401 59.9798 26.5045 59.9798 28.7028V36.3497H63.7566V28.1238C63.7566 23.8023 61.5658 22.0881 59.0783 22.0881C57.9846 22.0881 57.1141 22.358 56.3316 22.8421C55.6698 23.2494 55.0896 23.8236 54.5695 24.5743H54.5125C53.9143 23.0728 52.5091 22.0881 50.6736 22.0881C48.3198 22.0881 47.2505 23.2805 46.6213 24.2881H46.5642V22.3989" fill="#403F42"/>
<path d="M116.038 21.7727C116.781 21.7727 117.407 21.3834 117.488 20.8829L118.225 12.5081C118.225 11.6788 117.252 11 116.038 11C114.817 11 113.85 11.6788 113.85 12.5081L114.593 20.8829C114.672 21.3834 115.294 21.7727 116.038 21.7727Z" fill="#403F42"/>
<path d="M111.517 24.3933C111.885 23.739 111.864 23.0127 111.466 22.6889L104.587 17.8619C103.872 17.4432 102.801 17.9421 102.188 18.9987C101.577 20.0538 101.7 21.238 102.401 21.6486L110.017 25.1915C110.505 25.3747 111.142 25.0345 111.517 24.3867" fill="#403F42"/>
<path d="M120.557 24.3864C120.947 25.0341 121.584 25.3744 122.059 25.201L129.674 21.6482C130.382 21.2295 130.488 20.0567 129.889 19.0017C129.278 17.945 128.201 17.4494 127.487 17.86L120.606 22.682C120.225 23.0108 120.197 23.7403 120.565 24.3929" fill="#403F42"/>
<path d="M116.038 32.2338C116.781 32.2338 117.407 32.6231 117.488 33.1236L118.225 41.4984C118.225 42.3277 117.252 43 116.038 43C114.817 43 113.85 42.3277 113.85 41.4984L114.593 33.1236C114.672 32.6231 115.294 32.2338 116.038 32.2338Z" fill="#403F42"/>
<path d="M120.557 29.6206C120.947 28.9713 121.584 28.6245 122.059 28.8126L129.674 32.3588C130.382 32.7694 130.488 33.952 129.889 35.0086C129.278 36.0571 128.201 36.556 127.487 36.1454L120.606 31.3169C120.225 30.9914 120.197 30.2651 120.565 29.6206" fill="#403F42"/>
<path d="M111.517 29.6134C111.885 30.2661 111.864 30.9907 111.466 31.3178L104.587 36.1382C103.872 36.557 102.801 36.0565 102.188 35.008C101.577 33.9529 101.7 32.7687 102.401 32.3581L110.017 28.8119C110.505 28.6255 111.142 28.969 111.517 29.6134Z" fill="#403F42"/>
<path d="M131.903 35.4105H131.998C132.126 35.4105 132.178 35.4514 132.193 35.5545C132.221 35.669 132.236 35.7458 132.263 35.7786H132.508C132.487 35.754 132.459 35.6919 132.444 35.5479C132.416 35.4236 132.353 35.3533 132.263 35.3287V35.3058C132.387 35.278 132.459 35.1946 132.459 35.0916C132.459 34.9983 132.416 34.9313 132.374 34.8887C132.293 34.8495 132.214 34.8184 132.041 34.8184C131.888 34.8184 131.776 34.8315 131.686 34.8527V35.7786H131.903V35.4105ZM131.909 34.9885L132.02 34.9738C132.151 34.9738 132.221 35.0343 132.221 35.1194C132.221 35.2142 132.126 35.2584 132.006 35.2584H131.909V34.9885ZM132.048 34.3604C131.513 34.3604 131.09 34.7791 131.09 35.2928C131.09 35.8194 131.513 36.2382 132.048 36.2382C132.589 36.2382 133 35.8194 133 35.2928C133 34.7791 132.589 34.3604 132.048 34.3604ZM132.048 34.5485C132.459 34.5485 132.764 34.8822 132.764 35.2928C132.764 35.7066 132.459 36.0501 132.048 36.0435C131.637 36.0435 131.326 35.7066 131.326 35.2928C131.326 34.8822 131.637 34.5485 132.041 34.5485" fill="#403F42"/>
</g>
<defs>
<clipPath id="clip0_18_3828">
<rect width="133" height="32" fill="white" transform="translate(0 11)"/>
</clipPath>
</defs>
</svg>
