<svg width="232" height="37" viewBox="0 0 232 37" fill="none" xmlns="http://www.w3.org/2000/svg">
<path d="M14.4053 29.3471C20.638 29.3471 25.7374 24.2477 25.7374 18.0151C25.7374 11.7824 20.638 6.68298 14.4053 6.68298C8.17267 6.68298 3.07324 11.7824 3.07324 18.0151C3.07324 24.2477 8.17267 29.3471 14.4053 29.3471Z" stroke="#FBA800" stroke-width="1.69981" stroke-linecap="round" stroke-linejoin="round"/>
<path d="M9.58887 18.015L12.7958 21.2219L19.2211 14.808" stroke="#FBA800" stroke-width="1.69981" stroke-linecap="round" stroke-linejoin="round"/>
<path d="M49.3264 10.6108V12.3079L43.1691 26.0151H41.1021L47.3683 12.3079H39.9272V10.6108H49.3264ZM52.1259 18.313C52.1259 14.81 53.105 10.3497 57.3477 10.3497C61.5904 10.3497 62.5695 14.81 62.5695 18.313C62.5695 21.8159 61.5904 26.2762 57.3477 26.2762C53.105 26.2762 52.1259 21.8159 52.1259 18.313ZM53.9535 18.313C53.9535 20.5757 54.3016 24.7097 57.3477 24.7097C60.3937 24.7097 60.7419 20.5757 60.7419 18.313C60.7419 16.0502 60.3937 11.9162 57.3477 11.9162C54.3016 11.9162 53.9535 16.0502 53.9535 18.313ZM64.5421 18.313C64.5421 14.81 65.5212 10.3497 69.764 10.3497C74.0067 10.3497 74.9858 14.81 74.9858 18.313C74.9858 21.8159 74.0067 26.2762 69.764 26.2762C65.5212 26.2762 64.5421 21.8159 64.5421 18.313ZM66.3698 18.313C66.3698 20.5757 66.7179 24.7097 69.764 24.7097C72.81 24.7097 73.1581 20.5757 73.1581 18.313C73.1581 16.0502 72.81 11.9162 69.764 11.9162C66.7179 11.9162 66.3698 16.0502 66.3698 18.313ZM93.24 12.025L91.7388 13.3305C91.1296 12.3514 90.0417 11.9162 88.932 11.9162C87.322 11.9162 85.6466 12.6777 85.6466 14.5054C85.6466 15.9196 86.4299 16.5506 88.8885 17.3339C91.2819 18.0954 93.5011 18.8787 93.5011 21.903C93.5011 24.9708 90.8685 26.4068 88.0835 26.4068C86.2994 26.4068 84.3847 25.8193 83.3403 24.2745L84.9069 22.9908C85.5596 24.1222 86.8651 24.7097 88.1923 24.7097C89.7588 24.7097 91.5429 23.7959 91.5429 22.0335C91.5429 20.1406 90.2592 19.8142 87.5178 18.9004C85.342 18.1824 83.6885 17.2251 83.6885 14.6577C83.6885 11.6987 86.2341 10.2191 88.932 10.2191C90.6509 10.2191 92.1086 10.6978 93.24 12.025ZM96.8445 26.0151V10.6108H99.5642L104.786 22.6862H104.83L110.095 10.6108H112.749V26.0151H110.922V13.0911H110.878L105.352 26.0151H104.242L98.7156 13.0911H98.6721V26.0151H96.8445ZM125.722 12.025L124.22 13.3305C123.611 12.3514 122.523 11.9162 121.414 11.9162C119.804 11.9162 118.128 12.6777 118.128 14.5054C118.128 15.9196 118.912 16.5506 121.37 17.3339C123.764 18.0954 125.983 18.8787 125.983 21.903C125.983 24.9708 123.35 26.4068 120.565 26.4068C118.781 26.4068 116.866 25.8193 115.822 24.2745L117.389 22.9908C118.041 24.1222 119.347 24.7097 120.674 24.7097C122.241 24.7097 124.025 23.7959 124.025 22.0335C124.025 20.1406 122.741 19.8142 119.999 18.9004C117.824 18.1824 116.17 17.2251 116.17 14.6577C116.17 11.6987 118.716 10.2191 121.414 10.2191C123.133 10.2191 124.59 10.6978 125.722 12.025ZM135.404 26.0151V18.2477C135.404 17.3121 135.316 16.5071 135.316 15.8326H136.927C136.927 16.3765 136.97 16.9422 136.97 17.5079H137.014C137.47 16.5071 138.732 15.5715 140.408 15.5715C142.605 15.5715 143.302 16.8117 143.628 17.5079C144.368 16.3113 145.303 15.5715 146.848 15.5715C149.764 15.5715 150.721 17.2033 150.721 19.836V26.0151H149.024V19.923C149.024 18.5088 148.523 17.138 146.543 17.138C145.107 17.138 143.911 18.313 143.911 20.1406V26.0151H142.214V20.2494C142.214 18.0083 141.648 17.138 140.255 17.138C138.058 17.138 137.101 18.7263 137.101 21.0544V26.0151H135.404ZM162.069 23.1649L163.352 24.1657C162.156 25.7105 160.72 26.2762 158.827 26.2762C155.629 26.2762 153.67 23.8829 153.67 20.9239C153.67 17.769 155.89 15.5715 158.892 15.5715C161.764 15.5715 163.722 17.5297 163.722 20.9021V21.446H155.498C155.629 23.2084 156.977 24.7097 158.827 24.7097C160.285 24.7097 161.264 24.1875 162.069 23.1649ZM155.498 20.01H161.895C161.829 18.2912 160.698 17.138 158.827 17.138C156.956 17.138 155.716 18.2912 155.498 20.01ZM165.543 24.3833L166.892 23.339C167.566 24.1657 168.306 24.7097 169.503 24.7097C170.569 24.7097 171.744 24.2528 171.744 23.1431C171.744 22.0553 170.656 21.7724 169.568 21.5331C167.631 21.0979 165.978 20.6845 165.978 18.574C165.978 16.5941 167.892 15.5715 169.785 15.5715C171.221 15.5715 172.549 16.1154 173.245 17.4209L171.831 18.3565C171.395 17.6385 170.677 17.138 169.677 17.138C168.741 17.138 167.675 17.595 167.675 18.5523C167.675 19.4008 168.893 19.7707 170.242 20.0318C172.048 20.3799 173.571 21.0327 173.571 23.0779C173.571 25.3842 171.526 26.2762 169.503 26.2762C167.784 26.2762 166.544 25.8193 165.543 24.3833ZM175.133 24.3833L176.482 23.339C177.156 24.1657 177.896 24.7097 179.093 24.7097C180.159 24.7097 181.334 24.2528 181.334 23.1431C181.334 22.0553 180.246 21.7724 179.158 21.5331C177.222 21.0979 175.568 20.6845 175.568 18.574C175.568 16.5941 177.483 15.5715 179.376 15.5715C180.812 15.5715 182.139 16.1154 182.835 17.4209L181.421 18.3565C180.986 17.6385 180.268 17.138 179.267 17.138C178.331 17.138 177.265 17.595 177.265 18.5523C177.265 19.4008 178.484 19.7707 179.833 20.0318C181.639 20.3799 183.162 21.0327 183.162 23.0779C183.162 25.3842 181.116 26.2762 179.093 26.2762C177.374 26.2762 176.134 25.8193 175.133 24.3833ZM186.79 18.2477L185.724 17.138C186.769 16.0719 188.292 15.5715 189.771 15.5715C192.774 15.5715 194.036 17.0075 194.036 19.8795V24.2528C194.036 24.8402 194.101 25.493 194.188 26.0151H192.556C192.447 25.5582 192.447 24.9273 192.447 24.4921H192.404C191.729 25.5365 190.598 26.2762 189.053 26.2762C186.986 26.2762 185.267 25.2319 185.267 23.2519C185.267 19.8795 189.184 19.6837 191.686 19.6837H192.338V19.3791C192.338 17.8996 191.403 17.138 189.815 17.138C188.727 17.138 187.595 17.5079 186.79 18.2477ZM192.338 21.1197H190.641C188.487 21.1197 187.095 21.7071 187.095 23.0779C187.095 24.3616 188.052 24.8402 189.336 24.8402C191.294 24.8402 192.295 23.426 192.338 21.7724V21.1197ZM207.624 15.8326V25.5582C207.624 29.2353 205.644 31.237 202.076 31.237C200.096 31.237 198.508 30.7148 197.072 29.3005L198.29 27.908C199.356 29.0612 200.51 29.6704 202.076 29.6704C205.122 29.6704 205.927 27.7122 205.927 25.5582V24.2528H205.884C205.079 25.5582 203.643 26.1457 202.294 26.1457C199.095 26.1457 196.876 23.9264 196.876 20.9239C196.876 17.595 199.052 15.5715 202.294 15.5715C203.664 15.5715 205.209 16.2242 205.884 17.5732H205.927V15.8326H207.624ZM198.704 20.9239C198.704 22.9908 200.314 24.5791 202.294 24.5791C204.622 24.5791 205.927 22.8385 205.927 20.8803C205.927 18.6828 204.448 17.138 202.294 17.138C200.162 17.138 198.704 18.7916 198.704 20.9239ZM218.902 23.1649L220.186 24.1657C218.989 25.7105 217.553 26.2762 215.66 26.2762C212.462 26.2762 210.504 23.8829 210.504 20.9239C210.504 17.769 212.723 15.5715 215.725 15.5715C218.597 15.5715 220.556 17.5297 220.556 20.9021V21.446H212.331C212.462 23.2084 213.811 24.7097 215.66 24.7097C217.118 24.7097 218.097 24.1875 218.902 23.1649ZM212.331 20.01H218.728C218.663 18.2912 217.531 17.138 215.66 17.138C213.789 17.138 212.549 18.2912 212.331 20.01ZM222.376 24.3833L223.725 23.339C224.399 24.1657 225.139 24.7097 226.336 24.7097C227.402 24.7097 228.577 24.2528 228.577 23.1431C228.577 22.0553 227.489 21.7724 226.401 21.5331C224.465 21.0979 222.811 20.6845 222.811 18.574C222.811 16.5941 224.726 15.5715 226.619 15.5715C228.055 15.5715 229.382 16.1154 230.078 17.4209L228.664 18.3565C228.229 17.6385 227.511 17.138 226.51 17.138C225.574 17.138 224.508 17.595 224.508 18.5523C224.508 19.4008 225.727 19.7707 227.075 20.0318C228.881 20.3799 230.404 21.0327 230.404 23.0779C230.404 25.3842 228.359 26.2762 226.336 26.2762C224.617 26.2762 223.377 25.8193 222.376 24.3833Z" fill="#292D32"/>
</svg>
