<svg width="134" height="54" viewBox="0 0 134 54" fill="none" xmlns="http://www.w3.org/2000/svg">
<g clip-path="url(#clip0_18_3835)">
<path fill-rule="evenodd" clip-rule="evenodd" d="M68.2418 36.025C61.8496 40.5733 52.5843 43 44.6071 43C33.4218 43 23.3522 39.0063 15.7341 32.3641C15.1356 31.8418 15.6719 31.13 16.3901 31.5367C24.6115 36.1544 34.7769 38.9324 45.2775 38.9324C52.3593 38.9324 60.1497 37.518 67.3129 34.5828C68.3951 34.1391 69.3 35.2669 68.2418 36.025Z" fill="#403F42"/>
<path fill-rule="evenodd" clip-rule="evenodd" d="M70.8993 33.0898C70.0853 32.0822 65.4982 32.6137 63.4393 32.8495C62.812 32.9234 62.7162 32.3965 63.2812 32.0175C66.9346 29.5353 72.9295 30.2518 73.6286 31.0838C74.3277 31.9204 73.4466 37.7213 70.0135 40.4901C69.4868 40.9153 68.984 40.6888 69.2186 40.1249C69.9895 38.2668 71.7181 34.1021 70.8993 33.0898Z" fill="#403F42"/>
<path fill-rule="evenodd" clip-rule="evenodd" d="M63.5829 14.4944V12.0816C63.5829 11.7165 63.8702 11.4715 64.215 11.4715H75.405C75.7642 11.4715 76.0515 11.7211 76.0515 12.0816V14.1478C76.0467 14.4944 75.745 14.9474 75.2087 15.6639L69.4102 23.6558C71.5649 23.6049 73.8393 23.9146 75.7929 24.9777C76.2334 25.2181 76.3531 25.5694 76.3866 25.9161V28.4907C76.3866 28.842 75.9844 29.2533 75.563 29.0407C72.1203 27.2981 67.5476 27.1086 63.7409 29.0592C63.3531 29.2626 62.9461 28.8558 62.9461 28.5045V26.0594C62.9461 25.6665 62.9509 24.9962 63.3579 24.4L70.0757 15.1H64.2293C63.8702 15.1 63.5829 14.855 63.5829 14.4944Z" fill="#403F42"/>
<path fill-rule="evenodd" clip-rule="evenodd" d="M22.7633 29.5492H19.3588C19.0332 29.5261 18.7747 29.2903 18.7507 28.9899V12.1232C18.7507 11.7858 19.0428 11.5177 19.4067 11.5177H22.5813C22.9117 11.5316 23.175 11.7765 23.199 12.0816V14.2864H23.2612C24.0896 12.1556 25.6458 11.1618 27.743 11.1618C29.8738 11.1618 31.2049 12.1556 32.1625 14.2864C32.9861 12.1556 34.8583 11.1618 36.8646 11.1618C38.2915 11.1618 39.8524 11.7303 40.8053 13.0061C41.8827 14.4251 41.6624 16.4866 41.6624 18.2939L41.6576 28.939C41.6576 29.2765 41.3655 29.5492 41.0016 29.5492H37.602C37.262 29.5261 36.9891 29.2626 36.9891 28.939V19.9996C36.9891 19.2877 37.0561 17.5128 36.8933 16.8379C36.6395 15.7055 35.8782 15.3865 34.8918 15.3865C34.0683 15.3865 33.2064 15.9181 32.8568 16.7686C32.5073 17.6191 32.5408 19.0427 32.5408 19.9996V28.939C32.5408 29.2765 32.2487 29.5492 31.8848 29.5492H28.4852C28.1404 29.5261 27.8723 29.2626 27.8723 28.939L27.8675 19.9996C27.8675 18.1183 28.1883 15.3496 25.7703 15.3496C23.3235 15.3496 23.4192 18.049 23.4192 19.9996V28.939C23.4192 29.2765 23.1272 29.5492 22.7633 29.5492Z" fill="#403F42"/>
<path fill-rule="evenodd" clip-rule="evenodd" d="M85.6854 11.1618C90.7369 11.1618 93.471 15.3496 93.471 20.6744C93.471 25.819 90.4496 29.9005 85.6854 29.9005C80.7248 29.9005 78.0242 25.7127 78.0242 20.4941C78.0242 15.2432 80.7583 11.1618 85.6854 11.1618ZM85.7141 14.6054C83.2051 14.6054 83.0471 17.9057 83.0471 19.9626C83.0471 22.0241 83.0135 26.4245 85.6854 26.4245C88.3237 26.4245 88.4482 22.8746 88.4482 20.7114C88.4482 19.2877 88.3859 17.5867 87.9406 16.237C87.5576 15.063 86.7962 14.6054 85.7141 14.6054Z" fill="#403F42"/>
<path fill-rule="evenodd" clip-rule="evenodd" d="M100.021 29.5492H96.6313C96.2913 29.5261 96.0184 29.2626 96.0184 28.939L96.0136 12.0677C96.0423 11.7581 96.3248 11.5177 96.6696 11.5177H99.825C100.122 11.5316 100.366 11.7257 100.433 11.9892V14.5684H100.495C101.448 12.2619 102.784 11.1618 105.135 11.1618C106.663 11.1618 108.152 11.6933 109.109 13.1494C110 14.4991 110 16.7686 110 18.4003V29.0176C109.962 29.3134 109.679 29.5492 109.344 29.5492H105.93C105.619 29.5261 105.36 29.3042 105.327 29.0176V19.8563C105.327 18.012 105.547 15.3126 103.196 15.3126C102.368 15.3126 101.606 15.8488 101.228 16.6623C100.749 17.693 100.687 18.7192 100.687 19.8563V28.939C100.682 29.2765 100.385 29.5492 100.021 29.5492Z" fill="#403F42"/>
<path fill-rule="evenodd" clip-rule="evenodd" d="M54.6624 21.4926C54.6624 22.7729 54.6959 23.8407 54.0256 24.9777C53.4845 25.9022 52.6226 26.4707 51.6698 26.4707C50.3626 26.4707 49.5965 25.5093 49.5965 24.0903C49.5965 21.2892 52.1965 20.7807 54.6624 20.7807V21.4926ZM58.0956 29.5029C57.8705 29.6971 57.5449 29.7109 57.2912 29.5815C56.1611 28.6756 55.9552 28.2549 55.3376 27.3906C53.4701 29.2302 52.1438 29.7803 49.7257 29.7803C46.8576 29.7803 44.6311 28.0747 44.6311 24.6588C44.6311 21.9918 46.125 20.1752 48.2606 19.2877C50.1088 18.5019 52.6897 18.3633 54.6624 18.146V17.7208C54.6624 16.9396 54.7247 16.0152 54.2458 15.3403C53.8341 14.7348 53.0392 14.4852 52.3353 14.4852C51.0377 14.4852 49.8838 15.1277 49.6013 16.4589C49.5438 16.7547 49.3188 17.0459 49.0075 17.0598L45.7084 16.7177C45.4307 16.6577 45.1195 16.4404 45.2009 16.029C45.9574 12.1648 49.5773 11 52.8142 11C54.4709 11 56.6352 11.4252 57.9424 12.6363C59.5991 14.1293 59.4411 16.1215 59.4411 18.2893V23.4108C59.4411 24.95 60.1019 25.6249 60.7243 26.4569C60.9398 26.7527 60.9877 27.1086 60.7099 27.3305C60.0157 27.8898 58.7803 28.9298 58.1004 29.5122L58.0956 29.5029Z" fill="#403F42"/>
<path fill-rule="evenodd" clip-rule="evenodd" d="M10.0313 21.4927C10.0313 22.7731 10.0649 23.8408 9.39451 24.9779C8.85343 25.9023 7.99634 26.4709 7.0387 26.4709C5.73151 26.4709 4.97018 25.5094 4.97018 24.0904C4.97018 21.2893 7.57019 20.7809 10.0313 20.7809V21.4927ZM13.4645 29.5031C13.2395 29.6972 12.9139 29.7111 12.6601 29.5817C11.5301 28.6757 11.3289 28.2551 10.7065 27.3907C8.83907 29.2304 7.51752 29.7804 5.09467 29.7804C2.23131 29.7804 0 28.0748 0 24.6589C0 21.9919 1.49872 20.1753 3.62948 19.2879C5.47773 18.5021 8.05859 18.3634 10.0313 18.1462V17.7209C10.0313 16.9397 10.0936 16.0153 9.61955 15.3404C9.20297 14.7349 8.40813 14.4853 7.70905 14.4853C6.41144 14.4853 5.25269 15.1278 4.97018 16.459C4.91272 16.7549 4.68767 17.0461 4.38123 17.0599L1.07735 16.7179C0.799634 16.6578 0.493187 16.4405 0.569798 16.0292C1.33113 12.1649 4.94624 11.0001 8.18308 11.0001C9.83981 11.0001 12.0041 11.4254 13.3113 12.6364C14.968 14.1294 14.81 16.1216 14.81 18.2895V23.4109C14.81 24.9501 15.4708 25.625 16.0932 26.457C16.3135 26.7528 16.3614 27.1087 16.0837 27.3306C15.3894 27.8899 14.154 28.9299 13.4741 29.5123L13.4645 29.5031Z" fill="#403F42"/>
</g>
<defs>
<clipPath id="clip0_18_3835">
<rect width="110" height="32" fill="white" transform="translate(0 11)"/>
</clipPath>
</defs>
</svg>
