<svg width="134" height="54" viewBox="0 0 134 54" fill="none" xmlns="http://www.w3.org/2000/svg">
<path d="M4.95882 14.1338H0V19.0728H4.95882V14.1338Z" fill="#403F42"/>
<path d="M4.83532 39.8661V22.0785H0.141208V39.8661H4.83532ZM36.0353 40.0419V35.6829C35.3471 35.6829 34.7647 35.6477 34.3412 35.5774C33.8471 35.5071 33.4765 35.3313 33.2294 35.0853C32.9824 34.8392 32.8235 34.4876 32.7353 34.0306C32.6647 33.5912 32.6294 33.0112 32.6294 32.3081V26.086H36.0353V22.0785H32.6294V15.1356H27.9177V32.3433C27.9177 33.8021 28.0412 35.0325 28.2882 36.0168C28.5353 36.9835 28.9588 37.7745 29.5412 38.3721C30.1235 38.9697 30.9 39.3916 31.8353 39.6552C32.7882 39.9189 33.9882 40.0419 35.4177 40.0419H36.0353ZM63 39.8661V13.7646H58.2882V39.8661H63ZM23.3824 23.8186C22.0765 22.4124 20.2412 21.7093 17.9118 21.7093C16.7824 21.7093 15.7588 21.9378 14.8236 22.3948C13.9059 22.8518 13.1118 23.4846 12.4941 24.2931L12.2294 24.6271V22.0785H7.58826V39.8661H12.2647V30.3923V31.0426C12.2647 30.9371 12.2647 30.8317 12.2647 30.7262C12.3177 29.0564 12.7236 27.8261 13.5 27.0351C14.3294 26.1914 15.3353 25.7696 16.4824 25.7696C17.8412 25.7696 18.8824 26.1914 19.5706 26.9999C20.2412 27.8085 20.5941 28.951 20.5941 30.4098V39.8486H25.3412V29.7595C25.3588 27.2284 24.6883 25.2247 23.3824 23.8186ZM55.8529 30.9371C55.8529 29.654 55.6235 28.4588 55.1824 27.3339C54.7235 26.2266 54.0882 25.2423 53.2941 24.3986C52.4824 23.5549 51.5118 22.9046 50.3824 22.43C49.2529 21.9554 48 21.7269 46.6412 21.7269C45.353 21.7269 44.1353 21.973 43.0059 22.4476C41.8765 22.9397 40.8882 23.5901 40.0588 24.4162C39.2294 25.2423 38.5588 26.2266 38.0824 27.3515C37.5882 28.4764 37.3588 29.6892 37.3588 30.9723C37.3588 32.2554 37.5882 33.4682 38.0471 34.5931C38.5059 35.718 39.1588 36.7023 39.9706 37.5284C40.7824 38.3545 41.7882 39.0224 42.953 39.497C44.1177 39.9892 45.4059 40.2352 46.7824 40.2352C50.7706 40.2352 53.2412 38.4248 54.7235 36.7375L51.3353 34.1713C50.6294 35.0149 48.9353 36.1574 46.8177 36.1574C45.4941 36.1574 44.4 35.8586 43.5706 35.2434C42.7412 34.6458 42.1765 33.8021 41.8765 32.7651L41.8235 32.6069H55.8529V30.9371ZM41.8588 29.3025C41.8588 28.0018 43.3588 25.7344 46.5882 25.7168C49.8177 25.7168 51.3353 27.9842 51.3353 29.2849L41.8588 29.3025Z" fill="#403F42"/>
</svg>
