<svg width="117" height="39" viewBox="0 0 117 39" fill="none" xmlns="http://www.w3.org/2000/svg">
<path d="M25.5754 24.8715C24.801 24.8715 24.1171 24.7407 23.5237 24.4793C22.9303 24.2077 22.4627 23.8255 22.1207 23.3327C21.7788 22.8299 21.6028 22.2214 21.5927 21.5074H23.6293C23.6494 22.0002 23.8254 22.4175 24.1573 22.7595C24.4992 23.0914 24.9669 23.2573 25.5603 23.2573C26.0732 23.2573 26.4805 23.1366 26.7822 22.8953C27.0839 22.6438 27.2348 22.3119 27.2348 21.8996C27.2348 21.4671 27.099 21.1302 26.8275 20.8889C26.566 20.6475 26.214 20.4514 25.7715 20.3005C25.329 20.1497 24.8563 19.9887 24.3534 19.8178C23.5388 19.5362 22.9152 19.1741 22.4828 18.7316C22.0604 18.2891 21.8492 17.7007 21.8492 16.9666C21.8391 16.343 21.985 15.81 22.2867 15.3675C22.5984 14.9149 23.0208 14.5679 23.5539 14.3266C24.0869 14.0751 24.7004 13.9494 25.3943 13.9494C26.0983 13.9494 26.7168 14.0751 27.2499 14.3266C27.793 14.578 28.2154 14.93 28.5171 15.3826C28.8288 15.8351 28.9948 16.3732 29.0149 16.9967H26.9482C26.9381 16.6246 26.7923 16.2978 26.5107 16.0162C26.2391 15.7245 25.857 15.5787 25.3642 15.5787C24.9418 15.5686 24.5847 15.6742 24.2931 15.8955C24.0115 16.1067 23.8707 16.4185 23.8707 16.8308C23.8707 17.1828 23.9813 17.4644 24.2026 17.6756C24.4238 17.8767 24.7255 18.0477 25.1077 18.1885C25.4899 18.3293 25.9274 18.4802 26.4202 18.6411C26.9431 18.8221 27.4208 19.0333 27.8533 19.2747C28.2858 19.5161 28.6327 19.8379 28.8942 20.2402C29.1557 20.6324 29.2864 21.1403 29.2864 21.7638C29.2864 22.317 29.1456 22.8299 28.864 23.3026C28.5824 23.7753 28.1651 24.1574 27.6119 24.4491C27.0588 24.7307 26.3799 24.8715 25.5754 24.8715ZM31.9669 16.0463C31.6149 16.0463 31.3232 15.9407 31.0919 15.7295C30.8706 15.5183 30.76 15.2518 30.76 14.93C30.76 14.6082 30.8706 14.3467 31.0919 14.1455C31.3232 13.9343 31.6149 13.8287 31.9669 13.8287C32.3189 13.8287 32.6055 13.9343 32.8268 14.1455C33.0581 14.3467 33.1737 14.6082 33.1737 14.93C33.1737 15.2518 33.0581 15.5183 32.8268 15.7295C32.6055 15.9407 32.3189 16.0463 31.9669 16.0463ZM31.0014 24.6905V17.2079H32.9324V24.6905H31.0014ZM38.1158 22.4578C37.7538 22.4578 37.4169 22.4175 37.1051 22.3371L36.5469 22.8953C36.7179 22.9858 36.9492 23.0612 37.2409 23.1215C37.5325 23.1819 38.0052 23.2422 38.6589 23.3026C39.6546 23.3931 40.3787 23.6294 40.8313 24.0116C41.2838 24.3938 41.5101 24.9218 41.5101 25.5956C41.5101 26.0381 41.3894 26.4555 41.1481 26.8477C40.9067 27.25 40.5346 27.5718 40.0317 27.8132C39.5289 28.0646 38.8852 28.1903 38.1007 28.1903C37.0347 28.1903 36.1748 27.9892 35.5211 27.5869C34.8674 27.1947 34.5405 26.6013 34.5405 25.8068C34.5405 25.133 34.8674 24.5497 35.5211 24.0569C35.3199 23.9663 35.1439 23.8708 34.9931 23.7702C34.8523 23.6697 34.7266 23.5641 34.6159 23.4534V23.1065L35.9284 21.7186C35.3451 21.2057 35.0534 20.5469 35.0534 19.7423C35.0534 19.2395 35.1741 18.7819 35.4155 18.3695C35.6669 17.9572 36.0189 17.6303 36.4715 17.389C36.9241 17.1476 37.4722 17.0269 38.1158 17.0269C38.5382 17.0269 38.9305 17.0873 39.2925 17.2079H42.1286V18.3846L40.8463 18.4751C41.0475 18.8573 41.1481 19.2797 41.1481 19.7423C41.1481 20.2452 41.0274 20.7028 40.786 21.1151C40.5446 21.5275 40.1926 21.8543 39.73 22.0957C39.2774 22.3371 38.7394 22.4578 38.1158 22.4578ZM38.1158 20.9794C38.5081 20.9794 38.8299 20.8738 39.0813 20.6626C39.3428 20.4514 39.4735 20.1497 39.4735 19.7574C39.4735 19.3652 39.3428 19.0635 39.0813 18.8523C38.8299 18.6411 38.5081 18.5355 38.1158 18.5355C37.7035 18.5355 37.3716 18.6411 37.1202 18.8523C36.8687 19.0635 36.743 19.3652 36.743 19.7574C36.743 20.1497 36.8687 20.4514 37.1202 20.6626C37.3716 20.8738 37.7035 20.9794 38.1158 20.9794ZM36.3055 25.6107C36.3055 25.9828 36.4765 26.2594 36.8185 26.4404C37.1705 26.6315 37.5979 26.727 38.1007 26.727C38.5835 26.727 38.9757 26.6265 39.2774 26.4253C39.5791 26.2342 39.73 25.9727 39.73 25.6409C39.73 25.3693 39.6294 25.143 39.4283 24.962C39.2372 24.781 38.85 24.6703 38.2667 24.6301C37.8543 24.5999 37.4722 24.5547 37.1202 24.4943C36.8285 24.6553 36.6173 24.8313 36.4866 25.0223C36.3659 25.2134 36.3055 25.4095 36.3055 25.6107ZM43.5367 24.6905V17.2079H45.2414L45.3922 18.4751C45.6235 18.0326 45.9554 17.6806 46.3879 17.4191C46.8304 17.1577 47.3483 17.0269 47.9417 17.0269C48.867 17.0269 49.586 17.3186 50.099 17.9019C50.6119 18.4852 50.8683 19.3401 50.8683 20.4665V24.6905H48.9374V20.6475C48.9374 20.0038 48.8066 19.511 48.5451 19.1691C48.2836 18.8271 47.8763 18.6562 47.3232 18.6562C46.7801 18.6562 46.3326 18.8473 45.9806 19.2294C45.6386 19.6116 45.4676 20.1446 45.4676 20.8285V24.6905H43.5367ZM56.3547 24.6905V14.1305H58.2857V24.6905H56.3547ZM60.2871 24.6905V17.2079H61.9918L62.1427 18.4751C62.374 18.0326 62.7059 17.6806 63.1383 17.4191C63.5808 17.1577 64.0988 17.0269 64.6921 17.0269C65.6174 17.0269 66.3365 17.3186 66.8494 17.9019C67.3623 18.4852 67.6188 19.3401 67.6188 20.4665V24.6905H65.6878V20.6475C65.6878 20.0038 65.5571 19.511 65.2956 19.1691C65.0341 18.8271 64.6268 18.6562 64.0736 18.6562C63.5305 18.6562 63.083 18.8473 62.731 19.2294C62.3891 19.6116 62.2181 20.1446 62.2181 20.8285V24.6905H60.2871Z" fill="#1E1E1E"/>
<circle cx="93.4762" cy="19.1905" r="13.3333" fill="#634700"/>
<path d="M100.267 23.8555L96.0345 22.387L95.7474 20.0901C95.5562 20.363 95.2825 20.5755 94.926 20.6866L95.1865 22.771C95.2069 22.939 95.3216 23.0812 95.4816 23.1355L99.9749 24.6963C100.775 24.9755 101.476 25.9648 101.476 26.8128V26.8066C101.476 27.0519 101.675 27.251 101.921 27.251C102.165 27.251 102.364 27.0528 102.365 26.8083C102.362 25.5826 101.423 24.2599 100.267 23.8555Z" fill="white"/>
<path d="M85.0323 27.2515C84.787 27.2515 84.5879 27.0523 84.5879 26.807V26.8132C84.5879 25.5875 85.5292 24.2612 86.6848 23.8568L90.9177 22.3981L90.9283 22.1492C90.9586 21.9057 91.1852 21.7359 91.4252 21.7635C91.6679 21.7937 91.8412 22.0159 91.811 22.2603L91.7657 22.7839C91.7452 22.9519 91.6297 23.0932 91.4697 23.1483L86.9772 24.6968C86.1781 24.9768 85.4768 25.9661 85.4768 26.8132V26.807C85.4768 27.0532 85.2777 27.2515 85.0323 27.2515Z" fill="white"/>
<path d="M93.4759 21.4764C91.0057 21.4764 89.7497 19.8373 89.7417 15.7262C89.7399 14.6827 89.8511 13.6258 90.8324 12.6427C91.4573 12.016 92.3462 11.6987 93.4759 11.6987C94.6057 11.6987 95.4946 12.016 96.1204 12.6436C97.1017 13.6258 97.2128 14.6836 97.2111 15.7271C97.2022 19.8373 95.9462 21.4764 93.4759 21.4764ZM93.4759 12.5876C92.5791 12.5876 91.9204 12.8116 91.4608 13.2711C90.8991 13.8338 90.6271 14.3378 90.6297 15.7253C90.6368 19.2969 91.5675 20.5884 93.4751 20.5884C95.3826 20.5884 96.3133 19.2969 96.3204 15.7253C96.3231 14.3378 96.0511 13.8338 95.4893 13.2711C95.0315 12.8116 94.3728 12.5876 93.4759 12.5876Z" fill="white"/>
<rect x="1.38098" y="0.619043" width="114.286" height="37.1429" rx="18.5714" stroke="black" stroke-width="0.952381"/>
</svg>
