<svg width="27" height="28" viewBox="0 0 27 28" fill="none" xmlns="http://www.w3.org/2000/svg">
<g id="profile_x2C__person">
<g id="Group">
<g id="Group_2">
<g id="Group_3">
<circle id="Ellipse 2" cx="13.4762" cy="14.1905" r="13.3333" fill="#634700"/>
</g>
</g>
</g>
<g id="Group_4">
<g id="team_3_">
<g id="Group_5">
<g id="Group_6">
<g id="Group_7">
<g id="Group_8">
<path id="Vector" d="M20.2674 18.8555L16.0345 17.387L15.7474 15.0901C15.5562 15.363 15.2825 15.5755 14.926 15.6866L15.1865 17.771C15.2069 17.939 15.3216 18.0812 15.4816 18.1355L19.9749 19.6963C20.7749 19.9755 21.4762 20.9648 21.4762 21.8128V21.8066C21.4762 22.0519 21.6754 22.251 21.9207 22.251C22.1651 22.251 22.3642 22.0528 22.3651 21.8083C22.3625 20.5826 21.4229 19.2599 20.2674 18.8555Z" fill="white"/>
</g>
</g>
</g>
</g>
<g id="Group_9">
<g id="Group_10">
<g id="Group_11">
<g id="Group_12">
<path id="Vector_2" d="M5.03234 22.2515C4.787 22.2515 4.58789 22.0523 4.58789 21.807V21.8132C4.58789 20.5875 5.52922 19.2612 6.68478 18.8568L10.9177 17.3981L10.9283 17.1492C10.9586 16.9057 11.1852 16.7359 11.4252 16.7635C11.6679 16.7937 11.8412 17.0159 11.811 17.2603L11.7657 17.7839C11.7452 17.9519 11.6297 18.0932 11.4697 18.1483L6.97722 19.6968C6.17811 19.9768 5.47678 20.9661 5.47678 21.8132V21.807C5.47678 22.0532 5.27767 22.2515 5.03234 22.2515Z" fill="white"/>
</g>
</g>
</g>
</g>
<g id="Group_13">
<g id="Group_14">
<g id="Group_15">
<g id="Group_16">
<g id="Group_17">
<path id="Vector_3" d="M13.4759 16.4764C11.0057 16.4764 9.74972 14.8373 9.74172 10.7262C9.73994 9.68267 9.85105 8.62578 10.8324 7.64267C11.4573 7.016 12.3462 6.69867 13.4759 6.69867C14.6057 6.69867 15.4946 7.016 16.1204 7.64356C17.1017 8.62578 17.2128 9.68356 17.2111 10.7271C17.2022 14.8373 15.9462 16.4764 13.4759 16.4764ZM13.4759 7.58756C12.5791 7.58756 11.9204 7.81156 11.4608 8.27111C10.8991 8.83378 10.6271 9.33778 10.6297 10.7253C10.6368 14.2969 11.5675 15.5884 13.4751 15.5884C15.3826 15.5884 16.3133 14.2969 16.3204 10.7253C16.3231 9.33778 16.0511 8.83378 15.4893 8.27111C15.0315 7.81156 14.3728 7.58756 13.4759 7.58756Z" fill="white"/>
</g>
</g>
</g>
</g>
</g>
</g>
</g>
</g>
</svg>
