<svg width="54" height="54" viewBox="0 0 54 54" fill="none" xmlns="http://www.w3.org/2000/svg">
<g filter="url(#filter0_d_127_4185)">
<mask id="mask0_127_4185" style="mask-type:luminance" maskUnits="userSpaceOnUse" x="16" y="4" width="22" height="22">
<path d="M16 4H38V26H16V4Z" fill="white"/>
</mask>
<g mask="url(#mask0_127_4185)">
<path fill-rule="evenodd" clip-rule="evenodd" d="M32.3836 13.4485L26.7592 18.5404C26.6213 18.6655 26.4606 18.7494 26.2923 18.7937C26.1471 18.8582 25.9914 18.8917 25.835 18.8917C25.5568 18.8917 25.2781 18.7892 25.0602 18.5824L21.5974 15.2952C21.1464 14.8672 21.128 14.1549 21.5559 13.7042C21.9835 13.2534 22.696 13.2348 23.1469 13.6627L25.9033 16.2791L30.8728 11.7797C31.3335 11.3626 32.0452 11.3978 32.4622 11.8587C32.8794 12.3195 32.8443 13.0312 32.3836 13.4485ZM27 4C20.9248 4 16 8.92484 16 15C16 21.0754 20.9248 26 27 26C33.0754 26 38 21.0754 38 15C38 8.92484 33.0754 4 27 4Z" fill="white"/>
</g>
</g>
<defs>
<filter id="filter0_d_127_4185" x="0" y="0" width="54" height="54" filterUnits="userSpaceOnUse" color-interpolation-filters="sRGB">
<feFlood flood-opacity="0" result="BackgroundImageFix"/>
<feColorMatrix in="SourceAlpha" type="matrix" values="0 0 0 0 0 0 0 0 0 0 0 0 0 0 0 0 0 0 127 0" result="hardAlpha"/>
<feOffset dy="12"/>
<feGaussianBlur stdDeviation="8"/>
<feColorMatrix type="matrix" values="0 0 0 0 0.580392 0 0 0 0 0.654902 0 0 0 0 0.686275 0 0 0 0.14 0"/>
<feBlend mode="normal" in2="BackgroundImageFix" result="effect1_dropShadow_127_4185"/>
<feBlend mode="normal" in="SourceGraphic" in2="effect1_dropShadow_127_4185" result="shape"/>
</filter>
</defs>
</svg>
