<svg width="52" height="52" viewBox="0 0 52 52" fill="none" xmlns="http://www.w3.org/2000/svg">
<circle cx="26" cy="26" r="26" fill="#FBA800"/>
<path d="M33.7133 10.7668C34.5524 9.52521 35.3675 8.31959 36.2606 7C37.1416 7.56982 37.9627 8.09766 38.8977 8.70347C38.0646 9.99307 37.2795 11.2047 36.4524 12.4823C37.0158 13.0401 37.5971 13.568 38.1306 14.1438C42.7396 19.1282 44.256 24.9584 42.2601 31.4244C40.2643 37.8964 35.6972 41.8911 29.0983 43.3547C25.3403 44.1884 21.6004 43.7925 18.1061 42.0651C17.2431 41.6392 16.8235 41.8012 16.374 42.5749C15.8646 43.4627 15.2532 44.2904 14.6059 45.2561C13.7129 44.6743 12.8918 44.1464 11.9568 43.5406C12.7839 42.275 13.551 41.0874 14.3782 39.8158C10.1108 36.061 7.85718 31.3944 8.00702 25.6662C8.10891 21.9473 9.36755 18.6304 11.5912 15.6853C16.1403 9.65717 25.0706 6.55014 33.7133 10.7668ZM25.5681 19.794C21.942 19.764 19.0471 22.5652 18.9932 26.158C18.9392 29.8289 21.7622 32.756 25.4063 32.798C29.1103 32.84 32.125 29.9369 32.137 26.32C32.143 22.7271 29.2242 19.824 25.5681 19.794ZM19.2149 38.4842C24.3574 41.5972 32.9162 40.3556 37.1716 33.9316C41.5109 27.3817 39.0476 18.9963 34.5225 15.9012C34.037 16.609 33.5935 17.3528 33.054 18.0126C32.5566 18.6184 32.5985 19.0023 33.1439 19.5961C37.1656 23.9987 36.3565 31.1245 31.4657 34.5314C28.5289 36.5768 25.3403 36.9367 21.954 35.809C21.6723 35.7131 21.1509 35.7131 21.019 35.881C20.3597 36.7087 19.8023 37.6085 19.2149 38.4842ZM16.4519 36.7207C16.9913 35.917 17.4468 35.1432 17.9923 34.4475C18.4658 33.8476 18.3279 33.4578 17.8544 32.9179C14.3901 29.0191 14.516 23.021 18.1841 19.3082C21.1389 16.3151 24.693 15.4934 28.7267 16.651C29.0623 16.747 29.6377 16.8189 29.7816 16.639C30.4528 15.7933 31.0102 14.8576 31.6096 13.9518C27.474 11.4506 19.2689 11.6366 14.504 17.8146C10.0508 23.5908 10.9019 32.3901 16.4519 36.7207Z" fill="#FAF5F4"/>
</svg>
