<svg width="134" height="54" viewBox="0 0 134 54" fill="none" xmlns="http://www.w3.org/2000/svg">
<g clip-path="url(#clip0_18_3839)">
<path d="M37.7931 35.5039L39.2622 32.1024C40.8497 33.2835 42.9586 33.8976 45.0437 33.8976C46.5839 33.8976 47.5553 33.3071 47.5553 32.4094C47.5316 29.9055 38.3381 31.8661 38.267 25.5827C38.2433 22.3937 41.0867 19.937 45.1148 19.937C47.5079 19.937 49.9011 20.5276 51.6071 21.874L50.2328 25.3465C48.669 24.3543 46.726 23.6457 44.8778 23.6457C43.622 23.6457 42.7927 24.2362 42.7927 24.9921C42.8164 27.4488 52.081 26.1024 52.1758 32.1024C52.1758 35.3622 49.4035 37.6535 45.4228 37.6535C42.5084 37.6535 39.8308 36.9685 37.7931 35.5039ZM94.163 30.874C93.4284 32.1496 92.0541 33.0236 90.4666 33.0236C88.1208 33.0236 86.2252 31.1339 86.2252 28.7953C86.2252 26.4567 88.1208 24.5669 90.4666 24.5669C92.0541 24.5669 93.4284 25.4409 94.163 26.7165L98.2148 24.4724C96.6983 21.7795 93.7839 19.937 90.4666 19.937C85.5618 19.937 81.581 23.9055 81.581 28.7953C81.581 33.685 85.5618 37.6535 90.4666 37.6535C93.8075 37.6535 96.6983 35.8346 98.2148 33.1181L94.163 30.874ZM54.2136 12.5905H59.2843V37.3228H54.2136V12.5905ZM100.205 12.5905V37.3228H105.276V29.9055L111.294 37.3228H117.787L110.133 28.5118L117.218 20.2913H111.01L105.276 27.1181V12.5905H100.205ZM74.3541 30.9213C73.6196 32.126 72.1031 33.0236 70.3971 33.0236C68.0513 33.0236 66.1557 31.1339 66.1557 28.7953C66.1557 26.4567 68.0513 24.5669 70.3971 24.5669C72.1031 24.5669 73.6196 25.5118 74.3541 26.7402V30.9213ZM74.3541 20.2913V22.2992C73.5248 20.9055 71.4634 19.937 69.3071 19.937C64.8525 19.937 61.3457 23.8583 61.3457 28.7716C61.3457 33.685 64.8525 37.6535 69.3071 37.6535C71.4634 37.6535 73.5248 36.685 74.3541 35.2913V37.2992H79.4248V20.2913H74.3541Z" fill="#403F42"/>
<path d="M6.44514 30.8976C6.44514 32.622 5.04715 34.0157 3.31743 34.0157C1.58771 34.0157 0.189718 32.622 0.189718 30.8976C0.189718 29.1732 1.58771 27.7795 3.31743 27.7795H6.44514V30.8976ZM8.009 30.8976C8.009 29.1732 9.40699 27.7795 11.1367 27.7795C12.8664 27.7795 14.2644 29.1732 14.2644 30.8976V38.6929C14.2644 40.4173 12.8664 41.811 11.1367 41.811C9.40699 41.811 8.009 40.4173 8.009 38.6929V30.8976Z" fill="#403F42"/>
<path d="M11.1365 18.3779C9.40674 18.3779 8.00874 16.9842 8.00874 15.2598C8.00874 13.5354 9.40674 12.1417 11.1365 12.1417C12.8662 12.1417 14.2642 13.5354 14.2642 15.2598V18.3779H11.1365ZM11.1365 19.9606C12.8662 19.9606 14.2642 21.3543 14.2642 23.0787C14.2642 24.8031 12.8662 26.1968 11.1365 26.1968H3.29348C1.56376 26.1968 0.165771 24.8031 0.165771 23.0787C0.165771 21.3543 1.56376 19.9606 3.29348 19.9606H11.1365Z" fill="#403F42"/>
<path d="M23.671 23.0787C23.671 21.3543 25.069 19.9606 26.7987 19.9606C28.5284 19.9606 29.9264 21.3543 29.9264 23.0787C29.9264 24.8031 28.5284 26.1968 26.7987 26.1968H23.671V23.0787ZM22.1071 23.0787C22.1071 24.8031 20.7091 26.1968 18.9794 26.1968C17.2497 26.1968 15.8517 24.8031 15.8517 23.0787V15.2598C15.8517 13.5354 17.2497 12.1417 18.9794 12.1417C20.7091 12.1417 22.1071 13.5354 22.1071 15.2598V23.0787Z" fill="#403F42"/>
<path d="M18.9794 35.5748C20.7091 35.5748 22.1071 36.9685 22.1071 38.6929C22.1071 40.4173 20.7091 41.811 18.9794 41.811C17.2497 41.811 15.8517 40.4173 15.8517 38.6929V35.5748H18.9794ZM18.9794 34.0157C17.2497 34.0157 15.8517 32.622 15.8517 30.8976C15.8517 29.1732 17.2497 27.7795 18.9794 27.7795H26.8224C28.5521 27.7795 29.9501 29.1732 29.9501 30.8976C29.9501 32.622 28.5521 34.0157 26.8224 34.0157H18.9794Z" fill="#403F42"/>
</g>
<defs>
<clipPath id="clip0_18_3839">
<rect width="118" height="30" fill="white" transform="translate(0 12)"/>
</clipPath>
</defs>
</svg>
