<svg width="134" height="54" viewBox="0 0 134 54" fill="none" xmlns="http://www.w3.org/2000/svg">
<g clip-path="url(#clip0_18_3829)">
<path d="M61.134 18.045C61.134 19.3423 60.0831 20.3874 58.7785 20.3874C57.4739 20.3874 56.423 19.3423 56.423 18.045C56.423 16.7477 57.4377 15.7027 58.7785 15.7027C60.1193 15.7387 61.134 16.7838 61.134 18.045ZM51.422 22.7658C51.422 22.982 51.422 23.3423 51.422 23.3423C51.422 23.3423 50.2986 21.9009 47.9069 21.9009C43.9569 21.9009 40.8766 24.8919 40.8766 29.036C40.8766 33.1441 43.9206 36.1712 47.9069 36.1712C50.3349 36.1712 51.422 34.6937 51.422 34.6937V35.3063C51.422 35.5946 51.6395 35.8108 51.9294 35.8108H54.8647V22.2613C54.8647 22.2613 52.1831 22.2613 51.9294 22.2613C51.6395 22.2613 51.422 22.5135 51.422 22.7658ZM51.422 31.4504C50.8785 32.2432 49.7913 32.9279 48.4867 32.9279C46.1674 32.9279 44.3917 31.4865 44.3917 29.036C44.3917 26.5856 46.1674 25.1441 48.4867 25.1441C49.7551 25.1441 50.9147 25.8649 51.422 26.6216V31.4504ZM57.039 22.2613H60.5179V35.8108H57.039V22.2613ZM109.005 21.9009C106.614 21.9009 105.49 23.3423 105.49 23.3423V15.7387H102.011V35.8108C102.011 35.8108 104.693 35.8108 104.947 35.8108C105.236 35.8108 105.454 35.5586 105.454 35.3063V34.6937C105.454 34.6937 106.577 36.1712 108.969 36.1712C112.919 36.1712 115.999 33.1441 115.999 29.036C115.999 24.9279 112.919 21.9009 109.005 21.9009ZM108.425 32.8919C107.085 32.8919 106.034 32.2072 105.49 31.4144V26.5856C106.034 25.8649 107.193 25.1081 108.425 25.1081C110.745 25.1081 112.52 26.5495 112.52 29C112.52 31.4505 110.745 32.8919 108.425 32.8919ZM100.199 27.7748V35.8468H96.7204V28.1712C96.7204 25.9369 95.9956 25.036 94.0387 25.036C92.9878 25.036 91.9006 25.5766 91.2121 26.3694V35.8108H87.7332V22.2613H90.4873C90.7772 22.2613 90.9947 22.5135 90.9947 22.7658V23.3423C92.0094 22.2973 93.3502 21.9009 94.691 21.9009C96.213 21.9009 97.4814 22.3333 98.4961 23.1982C99.7282 24.2072 100.199 25.5045 100.199 27.7748ZM79.2896 21.9009C76.8978 21.9009 75.7744 23.3423 75.7744 23.3423V15.7387H72.2955V35.8108C72.2955 35.8108 74.9772 35.8108 75.2309 35.8108C75.5208 35.8108 75.7382 35.5586 75.7382 35.3063V34.6937C75.7382 34.6937 76.8616 36.1712 79.2533 36.1712C83.2034 36.1712 86.2836 33.1441 86.2836 29.036C86.3199 24.9279 83.2396 21.9009 79.2896 21.9009ZM78.7098 32.8919C77.3689 32.8919 76.318 32.2072 75.7744 31.4144V26.5856C76.318 25.8649 77.4776 25.1081 78.7098 25.1081C81.029 25.1081 82.8047 26.5495 82.8047 29C82.8047 31.4505 81.029 32.8919 78.7098 32.8919ZM69.2877 21.9009C70.3386 21.9009 70.8822 22.0811 70.8822 22.0811V25.2883C70.8822 25.2883 67.9831 24.3153 66.1712 26.3694V35.8468H62.6923V22.2613C62.6923 22.2613 65.3739 22.2613 65.6276 22.2613C65.9175 22.2613 66.1349 22.5135 66.1349 22.7658V23.3423C66.7872 22.5856 68.2005 21.9009 69.2877 21.9009ZM33.1577 34.5856C32.9766 34.1532 32.7954 33.6847 32.6142 33.2883C32.3243 32.6396 32.0343 32.027 31.7807 31.4504L31.7444 31.4144C29.244 26.009 26.5623 20.5315 23.7357 15.1261L23.627 14.9099C23.3371 14.3694 23.0472 13.7928 22.7572 13.2162C22.3949 12.5676 22.0325 11.8829 21.4527 11.2342C20.293 9.79279 18.626 9 16.8503 9C15.0384 9 13.4077 9.79279 12.2118 11.1622C11.6682 11.8108 11.2696 12.4955 10.9072 13.1441C10.6173 13.7207 10.3274 14.2973 10.0375 14.8378L9.92875 15.0541C7.13838 20.4595 4.42048 25.9369 1.92001 31.3423L1.88377 31.4144C1.6301 31.991 1.34019 32.6036 1.05028 33.2523C0.869086 33.6486 0.687893 34.0811 0.506699 34.5495C0.0355965 35.8829 -0.109358 37.1441 0.0718351 38.4414C0.470461 41.1441 2.28239 43.4144 4.78286 44.4234C5.72507 44.8198 6.70351 45 7.7182 45C8.00811 45 8.37049 44.964 8.6604 44.9279C9.85628 44.7838 11.0884 44.3874 12.2843 43.7027C13.7701 42.8739 15.1834 41.6847 16.7779 39.955C18.3724 41.6847 19.8219 42.8739 21.2715 43.7027C22.4673 44.3874 23.6994 44.7838 24.8953 44.9279C25.1852 44.964 25.5476 45 25.8375 45C26.8522 45 27.8669 44.8198 28.7729 44.4234C31.3096 43.4144 33.0853 41.1081 33.4839 38.4414C33.7738 37.1802 33.6288 35.9189 33.1577 34.5856ZM16.8141 36.4595C14.8572 34.009 13.5889 31.7027 13.154 29.7568C12.9728 28.9279 12.9366 28.2072 13.0453 27.5586C13.1178 26.982 13.3352 26.4775 13.6251 26.045C14.3136 25.0721 15.4733 24.4595 16.8141 24.4595C18.1549 24.4595 19.3508 25.036 20.0031 26.045C20.293 26.4775 20.5104 26.982 20.5829 27.5586C20.6916 28.2072 20.6554 28.964 20.4742 29.7568C20.0393 31.6667 18.771 33.973 16.8141 36.4595ZM31.2733 38.1532C31.0197 40.027 29.7513 41.6486 27.9756 42.3694C27.1059 42.7297 26.1637 42.8378 25.2215 42.7297C24.3155 42.6216 23.4095 42.3333 22.4673 41.7928C21.1627 41.0721 19.8582 39.955 18.3361 38.2973C20.7279 35.3784 22.1774 32.7117 22.721 30.3333C22.9747 29.2162 23.0109 28.2072 22.9022 27.2703C22.7572 26.3694 22.4311 25.5405 21.9238 24.8198C20.8004 23.1982 18.9159 22.2613 16.8141 22.2613C14.7123 22.2613 12.8278 23.2342 11.7045 24.8198C11.1971 25.5405 10.871 26.3694 10.726 27.2703C10.5811 28.2072 10.6173 29.2523 10.9072 30.3333C11.4508 32.7117 12.9366 35.4144 15.2921 38.3333C13.8063 39.991 12.4655 41.1081 11.1609 41.8288C10.2187 42.3694 9.3127 42.6577 8.40673 42.7658C7.42829 42.8739 6.48608 42.7297 5.65259 42.4054C3.8769 41.6847 2.60854 40.0631 2.35487 38.1892C2.24616 37.2883 2.31863 36.3874 2.68102 35.3784C2.78974 35.018 2.97093 34.6577 3.15212 34.2252C3.40579 33.6486 3.6957 33.036 3.98561 32.4234L4.02185 32.3514C6.52232 26.982 9.20398 21.5045 11.9944 16.1712L12.1031 15.955C12.393 15.4144 12.6829 14.8378 12.9728 14.2973C13.2627 13.7207 13.5889 13.1802 13.9875 12.7117C14.7485 11.8468 15.7632 11.3784 16.8866 11.3784C18.01 11.3784 19.0247 11.8468 19.7857 12.7117C20.1843 13.1802 20.5105 13.7207 20.8004 14.2973C21.0903 14.8378 21.3802 15.4144 21.6701 15.955L21.7788 16.1712C24.5329 21.5405 27.2146 27.018 29.7151 32.3874V32.4234C30.005 33 30.2587 33.6486 30.5486 34.2252C30.7298 34.6577 30.9109 35.018 31.0197 35.3784C31.3096 36.3153 31.4183 37.2162 31.2733 38.1532Z" fill="#403F42"/>
</g>
<defs>
<clipPath id="clip0_18_3829">
<rect width="116" height="36" fill="white" transform="translate(0 9)"/>
</clipPath>
</defs>
</svg>
