<svg width="134" height="54" viewBox="0 0 134 54" fill="none" xmlns="http://www.w3.org/2000/svg">
<g clip-path="url(#clip0_18_3831)">
<path fill-rule="evenodd" clip-rule="evenodd" d="M26 53.0003C11.6635 53.0003 0 41.3368 0 27.0004C0 12.6639 11.6635 1.00037 26 1.00037C40.3363 1.00037 52 12.6639 52 27.0004C52 41.3367 40.3364 53.0003 26 53.0003ZM30.4007 16.9438H15.7068L13.4773 20.5266H28.1543L30.4007 16.9438ZM33.4035 16.978L24.4208 31.2812H14.4569L16.7557 27.6953H22.7276L25.0089 24.1112H11.2028L8.92204 27.6953H12.1926L7.65483 34.8547H26.5927L33.5875 23.8237L36.1379 27.6953H33.8382L31.6603 31.2812H38.4703L40.835 34.8547H45.1791L33.4035 16.978Z" fill="#403F42"/>
</g>
<defs>
<clipPath id="clip0_18_3831">
<rect width="52" height="52" fill="white" transform="translate(0 1)"/>
</clipPath>
</defs>
</svg>
