<svg width="134" height="54" viewBox="0 0 134 54" fill="none" xmlns="http://www.w3.org/2000/svg">
<g clip-path="url(#clip0_18_3832)">
<path d="M115.241 39.3732C115.242 39.3732 115.243 39.3732 115.246 39.3732C115.533 39.3732 115.77 39.1395 115.77 38.8554C115.77 38.8454 115.77 38.8356 115.769 38.8256C115.769 38.4372 115.532 38.2516 115.045 38.2516H114.258V40.2852H114.555V39.3987H114.918L114.926 39.4095L115.49 40.2852H115.807L115.2 39.3789L115.241 39.3732ZM114.898 39.1695H114.555V38.4821H114.99C115.214 38.4821 115.47 38.5183 115.47 38.8088C115.47 39.1429 115.212 39.1695 114.897 39.1695H114.898ZM0 17.1376H4.36623V32.847H12.4497V36.827H0V17.1376ZM14.3801 23.477H18.5748V36.8196H14.3801V23.477ZM16.4774 16.8437C17.8121 16.8439 18.9103 17.9288 18.9103 19.2471C18.9103 20.5656 17.8119 21.6506 16.477 21.6506C15.1421 21.6506 14.0437 20.5656 14.0437 19.2471C14.0437 17.9287 15.1425 16.8437 16.4774 16.8437C16.4775 16.8437 16.4772 16.8437 16.4774 16.8437ZM36.1213 17.1346H40.316V28.9015L45.07 23.471H50.2128L44.7073 29.6481L50.0969 36.8252H44.8248L40.372 30.2298H40.3169V36.8243H36.1222L36.1213 17.1346ZM20.9006 23.4783H24.9287V25.3017H24.986C25.8046 23.9163 27.3348 23.086 28.9578 23.1464C33.2114 23.1464 33.9943 25.9107 33.9943 29.5018V36.8187H29.7997V30.3317C29.7997 28.7833 29.7709 26.7928 27.615 26.7928C25.4347 26.7928 25.0983 28.479 25.0983 30.2191V36.8171H20.9036L20.9006 23.4783Z" fill="#403F42"/>
<path d="M59.0453 28.5965C59.0457 28.577 59.046 28.5574 59.046 28.5379C59.046 27.1751 57.9107 26.0537 56.531 26.0537C56.5106 26.0537 56.4903 26.054 56.47 26.0545C54.9549 25.9613 53.6251 27.1017 53.5058 28.5965H59.0453ZM62.5985 34.509C61.1878 36.1987 59.0795 37.1744 56.8624 37.1637C52.6677 37.1637 49.3094 34.3981 49.3094 30.1156C49.3094 25.8331 52.6673 23.0688 56.8624 23.0688C60.783 23.0688 63.2416 25.8309 63.2416 30.1156V31.4147H53.5058C53.7553 32.931 55.112 34.0459 56.667 34.0124C57.8789 34.0049 59.0075 33.3902 59.6605 32.3818L62.5985 34.509ZM71.9849 26.7022C69.8876 26.7022 68.6292 28.0855 68.6292 30.101C68.6292 32.1165 69.8871 33.5008 71.9849 33.5008C74.0826 33.5008 75.3437 32.1198 75.3437 30.101C75.3437 28.082 74.0848 26.7022 71.9849 26.7022ZM79.2053 36.8172H75.3437V35.0477H75.2864C74.3051 36.3513 72.7608 37.1293 71.1162 37.1486C67.0859 37.1486 64.431 34.2755 64.431 30.2127C64.431 26.4814 66.7805 23.055 70.6425 23.055C72.3785 23.055 74.0001 23.5241 74.9513 24.8244H75.0064V17.1333H79.2048L79.2053 36.8172ZM107.523 36.8249H103.328V30.3366C103.328 28.7894 103.3 26.7977 101.147 26.7977C98.962 26.7977 98.6277 28.4833 98.6277 30.2239V36.8244H94.4332V23.4818H98.4599V25.3052H98.5164C99.3363 23.9206 100.866 23.0905 102.489 23.15C106.741 23.15 107.525 25.912 107.525 29.5054L107.523 36.8249ZM89.7002 21.6579C89.7 21.6579 89.7004 21.6579 89.7002 21.6579C88.3649 21.6579 87.2655 20.5727 87.2655 19.2537C87.2655 17.9348 88.3644 16.8494 89.6997 16.8494C91.035 16.8494 92.1337 17.9345 92.1339 19.2532C92.1339 19.253 92.1339 19.2534 92.1339 19.2532C92.1339 20.572 91.0354 21.6578 89.7002 21.6579ZM91.7975 36.8249H87.5985V23.4818H91.7975V36.8249ZM109.614 13.0019H85.4906C84.3583 12.9893 83.4156 13.8988 83.4017 15.0173V38.9435C83.415 40.0626 84.3576 40.9731 85.4906 40.9611H109.614C110.75 40.9752 111.696 40.0648 111.711 38.9435V15.0157C111.696 13.8948 110.749 12.9854 109.614 13.0002V13.0019ZM114.934 37.3458C113.881 37.3558 113.021 38.2133 113.021 39.2524C113.021 40.2985 113.893 41.1592 114.951 41.1592C116.011 41.1592 116.882 40.2985 116.882 39.2524C116.882 38.2133 116.022 37.3558 114.97 37.3458H114.934ZM114.934 40.9408C114.923 40.9409 114.915 40.9411 114.904 40.9411C113.976 40.9411 113.213 40.1864 113.213 39.2691C113.213 38.352 113.976 37.5972 114.904 37.5972C115.822 37.5972 116.582 38.3348 116.597 39.2413V39.2694C116.616 40.1665 115.886 40.9206 114.978 40.9399H114.934" fill="#403F42"/>
</g>
<defs>
<clipPath id="clip0_18_3832">
<rect width="117" height="28" fill="white" transform="translate(0 13)"/>
</clipPath>
</defs>
</svg>
