<svg width="134" height="54" viewBox="0 0 134 54" fill="none" xmlns="http://www.w3.org/2000/svg">
<g clip-path="url(#clip0_18_3833)">
<path d="M19.0831 8.06262C8.57569 8.06262 0.057373 16.5432 0.057373 27.0043C0.057373 37.4658 8.57569 45.9457 19.0831 45.9457C29.5916 45.9457 38.109 37.4658 38.109 27.0043C38.109 16.5439 29.5916 8.06353 19.0828 8.06353L19.0831 8.06262ZM27.8081 35.3819C27.4673 35.9383 26.7358 36.1148 26.1769 35.7732C21.7099 33.0567 16.0864 32.4414 9.46378 33.9479C8.8256 34.0926 8.18946 33.6945 8.04406 33.0589C7.89798 32.4233 8.29624 31.79 8.93601 31.6452C16.1834 29.9968 22.4001 30.7065 27.4151 33.7579C27.974 34.0994 28.1512 34.8255 27.8081 35.3819ZM30.1368 30.2243C29.7074 30.9192 28.7941 31.1386 28.0967 30.7111C22.9826 27.5815 15.187 26.6752 9.13799 28.5032C8.3535 28.7391 7.52493 28.299 7.28683 27.5193C7.05055 26.7383 7.49289 25.9149 8.27602 25.6774C15.1856 23.5901 23.7755 24.6012 29.6484 28.1942C30.3458 28.6217 30.5662 29.531 30.1368 30.2245V30.2243ZM30.3368 24.8536C24.2049 21.2276 14.088 20.8942 8.23354 22.6632C7.29342 22.9471 6.29923 22.4187 6.01433 21.4827C5.72943 20.5463 6.2597 19.5572 7.2005 19.2726C13.921 17.2414 25.0932 17.6339 32.1529 21.8064C33.0004 22.3061 33.2775 23.3934 32.7754 24.2341C32.2756 25.076 31.1805 25.3535 30.3377 24.8536H30.3368ZM51.82 25.5485C48.5348 24.7686 47.9509 24.2212 47.9509 23.071C47.9509 21.9844 48.9778 21.2531 50.5068 21.2531C51.9881 21.2531 53.4558 21.8084 54.9961 22.9516C55.0416 22.9862 55.1006 23 55.1574 22.991C55.2165 22.9824 55.2665 22.9509 55.3006 22.9037L56.9045 20.6526C56.9704 20.5599 56.9522 20.4321 56.8636 20.3613C55.0302 18.8971 52.9673 18.1853 50.5545 18.1853C47.0081 18.1853 44.5294 20.3045 44.5294 23.3366C44.5294 26.5881 46.6673 27.7394 50.3614 28.6281C53.5035 29.3489 54.0351 29.9529 54.0351 31.0323C54.0351 32.2288 52.9628 32.973 51.2361 32.973C49.3186 32.973 47.7533 32.3283 46.0039 30.8219C45.9607 30.7835 45.9016 30.7676 45.8471 30.7699C45.7881 30.7744 45.7358 30.8015 45.6994 30.8445L43.9001 32.9752C43.8251 33.0657 43.8342 33.1969 43.9205 33.2738C45.9562 35.0833 48.4598 36.0379 51.1634 36.0379C54.9848 36.0379 57.4543 33.9592 57.4543 30.7405C57.4611 28.0246 55.8276 26.5204 51.8268 25.5514L51.82 25.5485ZM66.1012 22.323C64.445 22.323 63.0864 22.9726 61.9641 24.3038V22.8055C61.9641 22.6872 61.8687 22.5908 61.7505 22.5908H58.8084C58.6903 22.5908 58.5948 22.6872 58.5948 22.8055V39.4533C58.5948 39.5709 58.6903 39.6682 58.8084 39.6682H61.7505C61.8687 39.6682 61.9641 39.5709 61.9641 39.4533V34.1989C63.0864 35.4498 64.445 36.0627 66.1012 36.0627C69.1797 36.0627 72.2968 33.7036 72.2968 29.1936C72.3013 24.6826 69.1842 22.3228 66.1035 22.3228L66.1012 22.323ZM68.8752 29.1936C68.8752 31.4892 67.4553 33.0929 65.4197 33.0929C63.409 33.0929 61.8914 31.4168 61.8914 29.1936C61.8914 26.9701 63.409 25.2945 65.4197 25.2945C67.4212 25.2943 68.8752 26.9337 68.8752 29.1933V29.1936ZM80.2825 22.323C76.318 22.323 73.2123 25.3621 73.2123 29.2426C73.2123 33.0815 76.2976 36.0876 80.2348 36.0876C84.2129 36.0876 87.3277 33.0589 87.3277 29.1936C87.3277 25.3413 84.2334 22.3235 80.2825 22.3235V22.323ZM80.2825 33.1155C78.1742 33.1155 76.5838 31.4281 76.5838 29.1924C76.5838 26.9466 78.1197 25.3169 80.2348 25.3169C82.3568 25.3169 83.9562 27.0036 83.9562 29.2415C83.9562 31.4869 82.4113 33.1155 80.2825 33.1155ZM95.7929 22.5908H92.5554V19.2961C92.5554 19.1781 92.46 19.0817 92.3419 19.0817H89.3997C89.2816 19.0817 89.1839 19.1781 89.1839 19.2961V22.5908H87.7708C87.6526 22.5908 87.5572 22.6872 87.5572 22.8055V25.3223C87.5572 25.4404 87.6526 25.537 87.7708 25.537H89.1839V32.0501C89.1839 34.6807 90.4993 36.0152 93.0961 36.0152C94.1503 36.0152 95.025 35.7981 95.8497 35.3321C95.9178 35.2959 95.9587 35.2236 95.9587 35.1467V32.749C95.9587 32.6767 95.9201 32.6065 95.8565 32.5681C95.7929 32.5274 95.7134 32.5251 95.6475 32.559C95.0818 32.8418 94.5342 32.973 93.9208 32.973C92.978 32.973 92.5554 32.5455 92.5554 31.5909V25.5381H95.7929C95.911 25.5381 96.0064 25.4417 96.0064 25.3234V22.8068C96.011 22.6885 95.9156 22.5922 95.7952 22.5922L95.7929 22.5908ZM107.071 22.6037V22.1991C107.071 21.0086 107.53 20.4778 108.557 20.4778C109.17 20.4778 109.663 20.599 110.215 20.7822C110.283 20.8035 110.354 20.7928 110.408 20.7524C110.465 20.7119 110.497 20.647 110.497 20.5782V18.1105C110.497 18.0161 110.438 17.9327 110.344 17.9048C109.763 17.7323 109.018 17.5552 107.9 17.5552C105.185 17.5552 103.747 19.0783 103.747 21.9584V22.5782H102.334C102.216 22.5782 102.118 22.6745 102.118 22.7926V25.3223C102.118 25.4404 102.216 25.537 102.334 25.537H103.747V35.5809C103.747 35.7008 103.845 35.7958 103.963 35.7958H106.903C107.023 35.7958 107.118 35.7008 107.118 35.5809V25.5376H109.865L114.073 35.5809C113.596 36.635 113.125 36.8454 112.485 36.8454C111.967 36.8454 111.419 36.6915 110.862 36.3862C110.81 36.359 110.747 36.3545 110.692 36.3704C110.635 36.3907 110.588 36.4314 110.565 36.4857L109.567 38.6639C109.52 38.768 109.561 38.8879 109.661 38.9421C110.701 39.5031 111.639 39.7429 112.8 39.7429C114.972 39.7429 116.174 38.734 117.231 36.0243L122.333 22.8969C122.361 22.8308 122.352 22.7562 122.311 22.6976C122.272 22.6395 122.206 22.6044 122.136 22.6044H119.073C118.98 22.6044 118.898 22.6625 118.869 22.7483L115.731 31.6679L112.296 22.7424C112.264 22.6594 112.185 22.6044 112.096 22.6044H107.071V22.6037ZM100.532 22.5908H97.59C97.4718 22.5908 97.3741 22.6872 97.3741 22.8055V35.5809C97.3741 35.7008 97.4718 35.7958 97.59 35.7958H100.532C100.65 35.7958 100.748 35.7008 100.748 35.5809V22.8064C100.748 22.6881 100.653 22.5917 100.532 22.5917V22.5908ZM99.0781 16.7734C97.9126 16.7734 96.9675 17.7126 96.9675 18.8727C96.9675 20.0335 97.9126 20.9738 99.0781 20.9738C100.244 20.9738 101.186 20.0335 101.186 18.8727C101.186 17.7128 100.241 16.7734 99.0781 16.7734ZM124.846 26.6987C123.683 26.6987 122.776 25.7679 122.776 24.6376C122.776 23.5074 123.694 22.566 124.857 22.566C126.021 22.566 126.927 23.4965 126.927 24.6259C126.927 25.7561 126.009 26.6987 124.846 26.6987ZM124.857 22.7709C123.797 22.7709 122.995 23.61 122.995 24.6376C122.995 25.6648 123.792 26.4926 124.846 26.4926C125.907 26.4926 126.709 25.6541 126.709 24.6259C126.709 23.5987 125.912 22.7709 124.857 22.7709ZM125.316 24.8378L125.903 25.6539H125.407L124.88 24.9052H124.428V25.6539H124.015V23.4906H124.982C125.489 23.4906 125.821 23.7478 125.821 24.1807C125.823 24.5354 125.616 24.7521 125.319 24.8378H125.316ZM124.967 23.8618H124.428V24.546H124.967C125.235 24.546 125.396 24.4151 125.396 24.2036C125.396 23.981 125.235 23.8618 124.967 23.8618Z" fill="#403F42"/>
</g>
<defs>
<clipPath id="clip0_18_3833">
<rect width="127" height="38" fill="white" transform="translate(0 8)"/>
</clipPath>
</defs>
</svg>
