<svg width="134" height="54" viewBox="0 0 134 54" fill="none" xmlns="http://www.w3.org/2000/svg">
<path d="M45.1085 27.4618C45.1085 32.4587 41.2154 36.1409 36.4376 36.1409C31.6598 36.1409 27.7666 32.4587 27.7666 27.4618C27.7666 22.4296 31.6598 18.7827 36.4376 18.7827C41.2154 18.7827 45.1085 22.4296 45.1085 27.4618ZM41.3128 27.4618C41.3128 24.3392 39.0564 22.2027 36.4376 22.2027C33.8188 22.2027 31.5624 24.3392 31.5624 27.4618C31.5624 30.5531 33.8188 32.7209 36.4376 32.7209C39.0564 32.7209 41.3128 30.5492 41.3128 27.4618Z" fill="#403F42"/>
<path d="M63.8144 27.4618C63.8144 32.4587 59.9213 36.1409 55.1435 36.1409C50.3657 36.1409 46.4725 32.4587 46.4725 27.4618C46.4725 22.4335 50.3657 18.7827 55.1435 18.7827C59.9213 18.7827 63.8144 22.4296 63.8144 27.4618ZM60.0187 27.4618C60.0187 24.3392 57.7623 22.2027 55.1435 22.2027C52.5246 22.2027 50.2682 24.3392 50.2682 27.4618C50.2682 30.5531 52.5246 32.7209 55.1435 32.7209C57.7623 32.7209 60.0187 30.5492 60.0187 27.4618Z" fill="#403F42"/>
<path d="M81.7409 19.307V34.8887C81.7409 41.2983 77.9763 43.9161 73.5259 43.9161C69.3366 43.9161 66.8152 41.1027 65.8643 38.8018L69.169 37.4205C69.7574 38.8331 71.1993 40.5 73.522 40.5C76.3707 40.5 78.1361 38.7353 78.1361 35.4131V34.1648H78.0036C77.1541 35.2174 75.5173 36.137 73.4518 36.137C69.13 36.137 65.1706 32.357 65.1706 27.4931C65.1706 22.594 69.13 18.7827 73.4518 18.7827C75.5134 18.7827 77.1502 19.7022 78.0036 20.7235H78.1361V19.3109H81.7409V19.307ZM78.405 27.4931C78.405 24.437 76.3746 22.2027 73.7909 22.2027C71.1721 22.2027 68.978 24.437 68.978 27.4931C68.978 30.5179 71.1721 32.7209 73.7909 32.7209C76.3746 32.7209 78.405 30.5179 78.405 27.4931Z" fill="#403F42"/>
<path d="M87.6839 10.174V35.6087H83.9817V10.174H87.6839Z" fill="#403F42"/>
<path d="M102.111 30.3183L105.057 32.2905C104.106 33.7031 101.815 36.137 97.8552 36.137C92.9449 36.137 89.2778 32.3257 89.2778 27.4579C89.2778 22.2966 92.9761 18.7787 97.4305 18.7787C101.916 18.7787 104.11 22.3631 104.827 24.3L105.221 25.2861L93.6659 30.0914C94.5505 31.8327 95.9262 32.7209 97.8552 32.7209C99.7882 32.7209 101.129 31.7661 102.111 30.3183ZM93.0424 27.1957L100.766 23.9753C100.342 22.8914 99.0633 22.1361 97.5591 22.1361C95.63 22.1361 92.9449 23.8461 93.0424 27.1957Z" fill="#403F42"/>
<path d="M13.7528 25.204V21.5218H26.1104C26.2312 22.1635 26.2935 22.9227 26.2935 23.7444C26.2935 26.507 25.5414 29.9231 23.1174 32.357C20.7597 34.8222 17.7473 36.137 13.7567 36.137C6.36009 36.137 0.140381 30.0874 0.140381 22.6605C0.140381 15.2335 6.36009 9.18396 13.7567 9.18396C17.8486 9.18396 20.7636 10.7961 22.9538 12.8974L20.3661 15.4957C18.7956 14.0166 16.6678 12.8661 13.7528 12.8661C8.35148 12.8661 4.12707 17.237 4.12707 22.6605C4.12707 28.084 8.35148 32.4548 13.7528 32.4548C17.2563 32.4548 19.2516 31.0422 20.5298 29.7587C21.5664 28.7179 22.2484 27.2309 22.5173 25.2L13.7528 25.204Z" fill="#403F42"/>
</svg>
