<svg width="46" height="46" viewBox="0 0 46 46" fill="none" xmlns="http://www.w3.org/2000/svg">
<path d="M13.899 36.2746L8.1125 41.139C7.90296 41.3151 7.64748 41.4278 7.3761 41.4637C7.10472 41.4996 6.82872 41.4573 6.58057 41.3417C6.33242 41.2262 6.12243 41.0421 5.9753 40.8113C5.82816 40.5804 5.75 40.3124 5.75 40.0386V11.5C5.75 11.1188 5.90145 10.7531 6.17103 10.4835C6.44062 10.214 6.80625 10.0625 7.1875 10.0625H38.8125C39.1937 10.0625 39.5594 10.214 39.829 10.4835C40.0986 10.7531 40.25 11.1188 40.25 11.5V34.5C40.25 34.8812 40.0986 35.2469 39.829 35.5165C39.5594 35.7861 39.1937 35.9375 38.8125 35.9375H14.824C14.4856 35.9375 14.158 36.0569 13.899 36.2746Z" stroke="#FECD29" stroke-width="2" stroke-linecap="round" stroke-linejoin="round"/>
<path d="M23 25.1562C24.1909 25.1562 25.1562 24.1909 25.1562 23C25.1562 21.8091 24.1909 20.8438 23 20.8438C21.8091 20.8438 20.8438 21.8091 20.8438 23C20.8438 24.1909 21.8091 25.1562 23 25.1562Z" fill="#FECD29"/>
<path d="M14.375 25.1562C15.5659 25.1562 16.5312 24.1909 16.5312 23C16.5312 21.8091 15.5659 20.8438 14.375 20.8438C13.1841 20.8438 12.2188 21.8091 12.2188 23C12.2188 24.1909 13.1841 25.1562 14.375 25.1562Z" fill="#FECD29"/>
<path d="M31.625 25.1562C32.8159 25.1562 33.7812 24.1909 33.7812 23C33.7812 21.8091 32.8159 20.8438 31.625 20.8438C30.4341 20.8438 29.4688 21.8091 29.4688 23C29.4688 24.1909 30.4341 25.1562 31.625 25.1562Z" fill="#FECD29"/>
</svg>
