<svg width="46" height="46" viewBox="0 0 46 46" fill="none" xmlns="http://www.w3.org/2000/svg">
<path d="M32.3438 27.3125V37.375M37.375 32.3438H27.3125M20.125 13.6562C20.125 17.2288 17.2288 20.125 13.6562 20.125C10.0837 20.125 7.1875 17.2288 7.1875 13.6562C7.1875 10.0837 10.0837 7.1875 13.6562 7.1875C17.2288 7.1875 20.125 10.0837 20.125 13.6562ZM38.8125 13.6562C38.8125 17.2288 35.9163 20.125 32.3438 20.125C28.7712 20.125 25.875 17.2288 25.875 13.6562C25.875 10.0837 28.7712 7.1875 32.3438 7.1875C35.9163 7.1875 38.8125 10.0837 38.8125 13.6562ZM20.125 32.3438C20.125 35.9163 17.2288 38.8125 13.6562 38.8125C10.0837 38.8125 7.1875 35.9163 7.1875 32.3438C7.1875 28.7712 10.0837 25.875 13.6562 25.875C17.2288 25.875 20.125 28.7712 20.125 32.3438Z" stroke="#FECD29" stroke-width="2" stroke-linecap="round" stroke-linejoin="round"/>
</svg>
