<svg width="46" height="47" viewBox="0 0 46 47" fill="none" xmlns="http://www.w3.org/2000/svg">
<path d="M28.8906 16.874C25.5165 16.874 22.7812 19.6093 22.7812 22.9834C22.7812 26.3575 25.5165 29.0928 28.8906 29.0928C32.2647 29.0928 35 26.3575 35 22.9834C35 19.6093 32.2647 16.874 28.8906 16.874ZM28.8906 16.874C30.5109 16.874 32.0649 16.2304 33.2106 15.0846C34.3563 13.9389 35 12.385 35 10.7646C35 9.14434 34.3563 7.5904 33.2106 6.44467C32.0649 5.29894 30.5109 4.65527 28.8906 4.65527H22.7812M28.8906 16.874L22.7812 16.8739M22.7812 16.8739V4.65527M22.7812 16.8739L16.6719 16.874M22.7812 16.8739V29.0926M22.7812 4.65527H16.6719C15.0516 4.65527 13.4976 5.29894 12.3519 6.44467C11.2062 7.5904 10.5625 9.14434 10.5625 10.7646C10.5625 12.385 11.2062 13.9389 12.3519 15.0846C13.4976 16.2304 15.0516 16.874 16.6719 16.874M16.6719 16.874C15.0516 16.874 13.4976 17.5177 12.3519 18.6634C11.2062 19.8091 10.5625 21.3631 10.5625 22.9834C10.5625 24.6037 11.2062 26.1576 12.3519 27.3034C13.4976 28.4491 15.0516 29.0928 16.6719 29.0928M22.7812 29.0926L16.6719 29.0928M22.7812 29.0926L22.7813 35.2022C22.7813 36.4105 22.423 37.5917 21.7517 38.5964C21.0804 39.6011 20.1262 40.3842 19.0099 40.8466C17.8935 41.309 16.6652 41.43 15.48 41.1943C14.2949 40.9586 13.2063 40.3767 12.3519 39.5223C11.4975 38.6679 10.9156 37.5793 10.6799 36.3942C10.4442 35.2091 10.5651 33.9807 11.0275 32.8644C11.4899 31.748 12.273 30.7939 13.2777 30.1226C14.2824 29.4512 15.4636 29.0928 16.6719 29.0928" stroke="#FECD29" stroke-width="2" stroke-linecap="round" stroke-linejoin="round"/>
</svg>
