<svg width="46" height="46" viewBox="0 0 46 46" fill="none" xmlns="http://www.w3.org/2000/svg">
<path d="M28.8906 16.374C25.5165 16.374 22.7812 19.1093 22.7812 22.4834C22.7812 25.8575 25.5165 28.5928 28.8906 28.5928C32.2647 28.5928 35 25.8575 35 22.4834C35 19.1093 32.2647 16.374 28.8906 16.374ZM28.8906 16.374C30.5109 16.374 32.0649 15.7304 33.2106 14.5846C34.3563 13.4389 35 11.885 35 10.2646C35 8.64434 34.3563 7.0904 33.2106 5.94467C32.0649 4.79894 30.5109 4.15527 28.8906 4.15527H22.7812M28.8906 16.374L22.7812 16.3739M22.7812 16.3739V4.15527M22.7812 16.3739L16.6719 16.374M22.7812 16.3739V28.5926M22.7812 4.15527H16.6719C15.0516 4.15527 13.4976 4.79894 12.3519 5.94467C11.2062 7.0904 10.5625 8.64434 10.5625 10.2646C10.5625 11.885 11.2062 13.4389 12.3519 14.5846C13.4976 15.7304 15.0516 16.374 16.6719 16.374M16.6719 16.374C15.0516 16.374 13.4976 17.0177 12.3519 18.1634C11.2062 19.3091 10.5625 20.8631 10.5625 22.4834C10.5625 24.1037 11.2062 25.6576 12.3519 26.8034C13.4976 27.9491 15.0516 28.5928 16.6719 28.5928M22.7812 28.5926L16.6719 28.5928M22.7812 28.5926L22.7813 34.7022C22.7813 35.9105 22.423 37.0917 21.7517 38.0964C21.0804 39.1011 20.1262 39.8842 19.0099 40.3466C17.8935 40.809 16.6652 40.93 15.48 40.6943C14.2949 40.4586 13.2063 39.8767 12.3519 39.0223C11.4975 38.1679 10.9156 37.0793 10.6799 35.8942C10.4442 34.7091 10.5651 33.4807 11.0275 32.3644C11.4899 31.248 12.273 30.2939 13.2777 29.6226C14.2824 28.9512 15.4636 28.5928 16.6719 28.5928" stroke="#FECD29" stroke-width="2" stroke-linecap="round" stroke-linejoin="round"/>
</svg>
