<svg width="166" height="62" viewBox="0 0 166 62" fill="none" xmlns="http://www.w3.org/2000/svg">
<g id="Group">
<path id="Vector" d="M39.715 10.5125C40.9835 8.66497 42.2157 6.87099 43.5657 4.90744C44.8976 5.75534 46.1389 6.54076 47.5524 7.44221C46.2929 9.36114 45.106 11.164 43.8557 13.0651C44.7073 13.8952 45.5862 14.6806 46.3926 15.5374C53.3602 22.9543 55.6525 31.6296 52.6353 41.251C49.6182 50.8814 42.714 56.8256 32.7384 59.0033C27.0574 60.2439 21.4037 59.6549 16.1214 57.0844C14.8166 56.4507 14.1824 56.6917 13.5029 57.843C12.7327 59.164 11.8085 60.3957 10.83 61.8326C9.47999 60.9669 8.2387 60.1815 6.82525 59.28C8.07561 57.3968 9.23535 55.6296 10.4857 53.7374C4.03461 48.1502 0.627846 41.2064 0.854359 32.6828C1.00839 27.1491 2.9111 22.2135 6.27256 17.8312C13.1495 8.86132 26.6497 4.23805 39.715 10.5125ZM27.4017 23.945C21.9201 23.9004 17.5439 28.0684 17.4623 33.4147C17.3808 38.8769 21.6483 43.2324 27.1571 43.2949C32.7565 43.3574 37.314 39.0376 37.3321 33.6556C37.3411 28.3094 32.9286 23.9896 27.4017 23.945ZM17.7976 51.756C25.5715 56.3882 38.5099 54.5407 44.9429 44.9818C51.5027 35.2354 47.7789 22.7579 40.9382 18.1525C40.2043 19.2057 39.5338 20.3124 38.7183 21.2942C37.9663 22.1956 38.0297 22.7668 38.8542 23.6504C44.9339 30.2016 43.7107 40.8048 36.3173 45.8743C31.8776 48.9178 27.0574 49.4533 21.9382 47.7754C21.5124 47.6326 20.7241 47.6326 20.5248 47.8825C19.5281 49.1142 18.6855 50.4529 17.7976 51.756ZM13.6207 49.132C14.4361 47.936 15.1247 46.7847 15.9492 45.7493C16.665 44.8568 16.4566 44.2767 15.7408 43.4734C10.5038 37.672 10.6941 28.7468 16.2391 23.222C20.706 18.7683 26.0789 17.5456 32.1766 19.2682C32.684 19.411 33.5538 19.5181 33.7713 19.2503C34.7861 17.9918 35.6287 16.5995 36.5347 15.2518C30.283 11.53 17.8791 11.8067 10.676 20.9996C3.944 29.5947 5.2306 42.688 13.6207 49.132Z" fill="#634700"/>
<path id="Vector_2" d="M84.3925 36.6193C82.4807 38.3151 80.4511 39.404 78.032 39.6807C75.6853 39.9484 73.4202 39.761 71.2366 38.8506C68.1922 37.5743 66.6429 35.2091 66.4617 32.0407C66.2805 28.9436 67.4765 26.4267 70.2399 24.7755C72.8947 23.1868 75.8937 22.812 78.8837 22.4282C80.3787 22.2407 81.8736 21.9908 83.3777 21.9194C84.6099 21.857 84.5012 21.1162 84.5284 20.295C84.5646 19.3043 83.9666 19.1705 83.1784 19.1705C79.3095 19.1794 75.4316 19.1705 71.5628 19.1705C69.3611 19.1705 69.3611 19.1615 69.3611 16.9392C69.3611 16.002 69.4154 15.0559 69.352 14.1188C69.2704 13.0478 69.7778 12.7443 70.7654 12.7443C77.6514 12.7621 84.5465 12.7621 91.4325 12.7443C92.4926 12.7443 92.8007 13.1638 92.7916 14.1634C92.7644 21.9908 92.7554 29.8183 92.7916 37.6368C92.8007 38.7435 92.4111 39.1452 91.3147 39.1095C89.6023 39.0648 87.8808 38.9667 86.1865 39.1273C84.2113 39.3326 84.5918 37.9045 84.3925 36.6193ZM84.5103 28.658C84.5374 26.5695 84.5012 26.5338 82.4445 26.8908C81.5112 27.0515 80.5508 27.1229 79.6357 27.346C78.5756 27.6048 77.4883 27.8815 76.5189 28.3545C75.1235 29.0329 74.4349 30.4787 74.7158 31.7908C75.042 33.2991 76.1565 33.9864 77.579 34.2541C81.4116 34.9592 84.465 32.478 84.5103 28.658Z" fill="#634700"/>
<path id="Vector_3" d="M96.1167 12.7978C99.0433 12.7978 101.644 12.7532 104.235 12.8424C104.615 12.8513 105.105 13.4493 105.313 13.8777C106.455 16.1983 107.479 18.5724 108.638 20.8751C108.901 21.3928 109.599 22.0443 110.061 22.0265C110.623 21.9997 111.384 21.4374 111.665 20.9019C112.833 18.6527 113.893 16.35 114.899 14.0295C115.289 13.128 115.823 12.7264 116.82 12.7353C119.212 12.7799 121.595 12.7532 124.322 12.7532C123.072 15.1898 122.012 17.2515 120.943 19.3132C120.073 20.9912 119.239 22.678 118.306 24.3292C117.817 25.2039 117.835 25.9268 118.315 26.8193C120.172 30.2734 121.957 33.7721 123.76 37.2619C124.005 37.7349 124.222 38.2347 124.63 39.1183C122.981 39.1183 121.604 39.1451 120.227 39.1094C114.781 38.9844 116.367 40.0108 113.993 35.1912C113.178 33.54 112.462 31.8443 111.583 30.2377C111.329 29.7736 110.659 29.2559 110.179 29.2559C109.698 29.2559 108.992 29.7468 108.756 30.2109C107.442 32.7725 106.265 35.4054 104.987 37.9848C104.77 38.4132 104.28 39.0112 103.9 39.0201C101.299 39.1094 98.6899 39.0648 95.7905 39.0648C96.0805 38.3597 96.2436 37.8777 96.4791 37.4225C98.3547 33.8078 100.266 30.2109 102.079 26.5605C102.35 26.0071 102.35 25.1057 102.079 24.5613C100.411 21.1786 98.6265 17.8406 96.8959 14.4936C96.6785 14.0652 96.4882 13.61 96.1167 12.7978Z" fill="#634700"/>
<path id="Vector_4" d="M141.882 35.4327C143.132 33.9333 144.265 32.4874 145.515 31.1397C145.723 30.9165 146.466 31.0147 146.874 31.1754C148.813 31.9519 150.671 32.9336 152.655 33.5673C153.525 33.844 154.721 33.7012 155.563 33.2996C156.152 33.0229 156.696 31.9965 156.687 31.3182C156.678 30.7559 155.926 29.908 155.328 29.7027C153.008 28.9083 150.553 28.4621 148.26 27.6231C144.482 26.2397 142.752 23.6246 142.933 20.0456C143.123 16.2345 145.27 13.6819 149.176 12.6198C154.34 11.2096 161.018 12.5662 164.37 15.8061C163.192 17.1806 162.042 18.5908 160.782 19.9117C160.583 20.117 159.894 19.9831 159.486 19.8581C157.783 19.3137 156.125 18.5908 154.385 18.1981C153.661 18.0374 152.637 18.3409 151.993 18.7782C150.589 19.7421 150.924 21.6164 152.564 22.1519C153.996 22.616 155.482 22.9106 156.931 23.3122C157.801 23.5532 158.68 23.7942 159.523 24.0976C163.509 25.5525 165.176 28.0158 165.004 32.1482C164.859 35.6648 162.803 38.1995 158.934 39.1813C153.271 40.6183 147.961 39.6722 143.087 36.4859C142.67 36.2181 142.344 35.8433 141.882 35.4327Z" fill="#634700"/>
<path id="Vector_5" d="M137.822 26.025C137.822 29.7915 137.75 33.5579 137.859 37.3155C137.904 38.797 137.36 39.2255 135.956 39.1362C134.506 39.0469 133.038 39.038 131.589 39.1362C130.094 39.2433 129.568 38.7524 129.595 37.2173C129.686 32.2638 129.632 27.3103 129.623 22.3657C129.623 20.3932 129.604 20.3039 127.62 20.3843C126.116 20.4467 125.527 19.9559 125.645 18.4386C125.763 17.0105 125.699 15.5646 125.663 14.1366C125.645 13.2352 125.944 12.7532 126.95 12.7621C130.166 12.7889 133.383 12.7889 136.599 12.7621C137.614 12.7532 137.85 13.2352 137.85 14.1455C137.795 18.0994 137.822 22.0622 137.822 26.025Z" fill="#634700"/>
<path id="Vector_6" d="M67.5132 59.37C67.5132 56.1748 67.5132 53.1134 67.5132 49.9003C69.8236 49.9003 72.3787 49.704 74.8885 49.9628C76.8365 50.1591 77.2351 52.0691 75.9485 54.238C76.0844 54.3986 76.2204 54.6039 76.4016 54.7467C77.362 55.4786 77.7697 56.5496 77.2351 57.4957C76.7821 58.29 75.8398 59.0487 74.9609 59.3254C73.9009 59.6556 72.6777 59.4592 71.527 59.4682C70.3219 59.4771 69.1169 59.4592 67.9118 59.4503C67.7578 59.4414 67.6128 59.3878 67.5132 59.37ZM70.1589 57.5135C71.373 57.5135 72.5237 57.5849 73.6562 57.4689C74.0005 57.4332 74.526 56.8709 74.5351 56.5407C74.5442 56.2194 74.0549 55.6928 73.6925 55.5857C73.0854 55.4161 72.4059 55.5411 71.7535 55.4786C70.3038 55.3358 69.8508 56.0052 70.1589 57.5135ZM70.1317 51.7389C70.0592 52.6671 69.9233 53.4436 71.074 53.4615C71.7716 53.4704 72.4784 53.524 73.1488 53.3901C73.466 53.3276 73.9099 52.8278 73.8918 52.56C73.8737 52.2655 73.3935 51.8103 73.0764 51.7746C72.1522 51.6675 71.2008 51.7389 70.1317 51.7389Z" fill="#634700"/>
<path id="Vector_7" d="M96.0264 59.3429C96.0264 56.1031 96.0264 53.0685 96.0264 49.8911C98.373 49.8911 100.937 49.6947 103.456 49.9536C105.422 50.1589 105.821 52.1224 104.462 54.2288C104.607 54.3805 104.833 54.5233 104.915 54.7197C105.268 55.5854 105.848 56.4601 105.839 57.3348C105.83 58.4861 104.833 59.2537 103.71 59.3072C101.118 59.4233 98.518 59.3429 96.0264 59.3429ZM98.6539 57.5222C99.868 57.5222 100.982 57.6114 102.061 57.4776C102.477 57.424 102.822 56.8796 103.202 56.5583C102.804 56.2102 102.468 55.7014 102.006 55.5497C101.463 55.3712 100.81 55.5229 100.212 55.4783C98.8079 55.3801 98.4636 56.1031 98.6539 57.5222ZM98.672 51.7475C98.7355 53.4076 99.9043 53.9699 101.807 53.3898C102.115 53.3005 102.568 52.8454 102.523 52.6579C102.441 52.3188 102.061 51.819 101.762 51.7922C100.747 51.6851 99.7049 51.7475 98.672 51.7475Z" fill="#634700"/>
<path id="Vector_8" d="M133.827 9.22771C131.109 9.25449 129.225 7.46052 129.188 4.82757C129.152 2.12322 131.082 0.168595 133.782 0.177521C136.41 0.186446 138.358 2.10537 138.376 4.70262C138.385 7.29986 136.482 9.20094 133.827 9.22771Z" fill="#634700"/>
<path id="Vector_9" d="M108.494 49.8201C111.031 49.8201 113.722 49.7933 116.413 49.8647C116.639 49.8736 117.074 50.6055 117.011 50.9357C116.938 51.3284 116.458 51.9175 116.114 51.9354C114.519 52.0425 112.915 51.98 111.239 51.98C111.004 53.0867 111.167 53.7026 112.408 53.649C113.459 53.6044 114.528 53.5508 115.561 53.6936C115.96 53.7472 116.286 54.3362 116.648 54.6754C116.304 54.9789 115.978 55.4965 115.597 55.5412C114.555 55.6661 113.495 55.6393 112.444 55.5769C111.348 55.5144 110.986 55.9874 111.194 57.2548C112.68 57.2548 114.202 57.2637 115.733 57.2548C116.494 57.2459 117.129 57.2905 117.156 58.308C117.183 59.3969 116.522 59.4772 115.688 59.4683C113.242 59.4504 110.804 59.4593 108.485 59.4593C108.494 56.157 108.494 53.0867 108.494 49.8201Z" fill="#634700"/>
<path id="Vector_10" d="M151.766 59.2893C150.154 59.557 148.921 59.7802 148.378 58.129C148.305 57.897 147.834 57.6738 147.535 57.656C146.285 57.6024 145.025 57.6024 143.766 57.6649C143.476 57.6738 143.041 57.9326 142.95 58.1736C142.371 59.8248 141.156 59.557 139.716 59.2536C139.915 58.727 140.051 58.2629 140.25 57.8345C141.31 55.5407 142.452 53.2737 143.44 50.9531C143.884 49.9178 144.581 49.7304 145.569 49.775C146.52 49.8196 147.39 49.7036 147.888 50.8906C149.075 53.6575 150.407 56.3618 151.766 59.2893ZM145.66 52.0777C145.098 53.3719 144.699 54.2912 144.192 55.4604C145.351 55.389 146.149 55.3443 147.155 55.2819C146.638 54.1751 146.23 53.3183 145.66 52.0777Z" fill="#634700"/>
<path id="Vector_11" d="M128.164 50.0067C130.737 49.5515 130.792 49.5782 131.68 51.4882C132.441 53.1394 133.211 54.7817 134.144 56.772C135.041 54.8174 135.775 53.2108 136.509 51.6043C137.451 49.5515 137.451 49.5515 140.033 49.9799C139.481 51.1759 138.955 52.3272 138.412 53.4697C137.605 55.1744 136.817 56.888 135.965 58.5749C135.385 59.7084 132.966 59.9226 132.413 58.8516C130.946 55.9866 129.623 53.0591 128.164 50.0067Z" fill="#634700"/>
<path id="Vector_12" d="M78.2129 49.9808C79.9435 49.6237 81.2119 49.588 82.0999 51.0964C82.571 51.8908 83.2596 52.5512 83.8757 53.3009C85.7331 52.0693 86.2043 48.7669 89.6201 50.07C88.705 51.2481 87.9077 52.4441 86.9382 53.4794C85.706 54.7915 85.0174 56.2106 85.271 58.0224C85.3979 58.9595 85.0898 59.4861 83.9663 59.4861C82.8338 59.4861 82.5257 58.9417 82.6707 58.0135C82.9697 56.1213 82.1633 54.6933 80.9039 53.3545C79.9706 52.3638 79.1914 51.2214 78.2129 49.9808Z" fill="#634700"/>
<path id="Vector_13" d="M119.801 54.5764C119.801 53.5857 119.792 52.595 119.801 51.6043C119.81 50.6939 119.529 49.7121 121.133 49.7478C122.619 49.7746 122.393 50.6761 122.393 51.5418C122.402 52.9788 122.429 54.4157 122.383 55.8438C122.356 56.7452 122.746 57.0933 123.634 57.0755C124.893 57.0576 126.144 57.1022 127.403 57.0755C128.264 57.0576 128.526 57.4592 128.499 58.2625C128.481 59.039 128.264 59.4674 127.385 59.4496C125.228 59.4228 123.063 59.4228 120.907 59.4496C120.037 59.4585 119.765 59.0569 119.792 58.2714C119.828 57.0487 119.801 55.8081 119.801 54.5764Z" fill="#634700"/>
</g>
</svg>
