<svg width="10" height="10" viewBox="0 0 10 10" fill="none" xmlns="http://www.w3.org/2000/svg">
<g id="Vector">
<path fill-rule="evenodd" clip-rule="evenodd" d="M9.77671 0.580198C10.0424 0.845861 10.0424 1.27659 9.77671 1.54225L1.61345 9.70551C1.34778 9.97118 0.917058 9.97118 0.651396 9.70551C0.385733 9.43985 0.385733 9.00913 0.651396 8.74346L8.81466 0.580198C9.08032 0.314535 9.51105 0.314535 9.77671 0.580198Z" fill="#634700"/>
<path fill-rule="evenodd" clip-rule="evenodd" d="M1.98276 1.06122C1.98276 0.685519 2.28733 0.380951 2.66303 0.380951H9.29569C9.67139 0.380951 9.97596 0.685519 9.97596 1.06122V7.69388C9.97596 8.06958 9.67139 8.37415 9.29569 8.37415C8.91998 8.37415 8.61541 8.06958 8.61541 7.69388V1.7415H2.66303C2.28733 1.7415 1.98276 1.43693 1.98276 1.06122Z" fill="#634700"/>
</g>
</svg>
