<svg width="79" height="79" viewBox="0 0 79 79" fill="none" xmlns="http://www.w3.org/2000/svg">
<g filter="url(#filter0_d_53_4201)">
<path fill-rule="evenodd" clip-rule="evenodd" d="M39.8125 63C54.1719 63 65.8125 51.3594 65.8125 37C65.8125 22.6406 54.1719 11 39.8125 11C25.4531 11 13.8125 22.6406 13.8125 37C13.8125 51.3594 25.4531 63 39.8125 63Z" fill="#634700"/>
</g>
<g clip-path="url(#clip0_53_4201)">
<g clip-path="url(#clip1_53_4201)">
<path d="M34.495 29.8967C34.4947 30.3995 34.2948 30.8815 33.9391 31.2369C33.5834 31.5922 33.1011 31.7917 32.5983 31.7915C32.0955 31.7912 31.6134 31.5912 31.2581 31.2355C30.9028 30.8798 30.7033 30.3976 30.7035 29.8948C30.7038 29.392 30.9037 28.9099 31.2594 28.5546C31.6151 28.1992 32.0974 27.9997 32.6002 28C33.103 28.0003 33.5851 28.2002 33.9404 28.5559C34.2957 28.9116 34.4952 29.3939 34.495 29.8967ZM34.5519 33.1952H30.7604V45.0625H34.5519V33.1952ZM40.5424 33.1952H36.7699V45.0625H40.5044V38.835C40.5044 35.3659 45.0257 35.0436 45.0257 38.835V45.0625H48.7698V37.5459C48.7698 31.6976 42.0779 31.9156 40.5044 34.7877L40.5424 33.1952Z" fill="white"/>
</g>
</g>
<defs>
<filter id="filter0_d_53_4201" x="0.6875" y="0.5" width="78.25" height="78.25" filterUnits="userSpaceOnUse" color-interpolation-filters="sRGB">
<feFlood flood-opacity="0" result="BackgroundImageFix"/>
<feColorMatrix in="SourceAlpha" type="matrix" values="0 0 0 0 0 0 0 0 0 0 0 0 0 0 0 0 0 0 127 0" result="hardAlpha"/>
<feOffset dy="2.625"/>
<feGaussianBlur stdDeviation="6.5625"/>
<feColorMatrix type="matrix" values="0 0 0 0 0 0 0 0 0 0 0 0 0 0 0 0 0 0 0.1 0"/>
<feBlend mode="normal" in2="BackgroundImageFix" result="effect1_dropShadow_53_4201"/>
<feBlend mode="normal" in="SourceGraphic" in2="effect1_dropShadow_53_4201" result="shape"/>
</filter>
<clipPath id="clip0_53_4201">
<rect width="18.9573" height="17.0625" fill="white" transform="translate(29.8125 28)"/>
</clipPath>
<clipPath id="clip1_53_4201">
<rect width="18.9573" height="17.0625" fill="white" transform="translate(29.8125 28)"/>
</clipPath>
</defs>
</svg>
