<svg width="79" height="79" viewBox="0 0 79 79" fill="none" xmlns="http://www.w3.org/2000/svg">
<g filter="url(#filter0_d_53_4200)">
<path fill-rule="evenodd" clip-rule="evenodd" d="M39.8125 63C54.1719 63 65.8125 51.3594 65.8125 37C65.8125 22.6406 54.1719 11 39.8125 11C25.4531 11 13.8125 22.6406 13.8125 37C13.8125 51.3594 25.4531 63 39.8125 63Z" fill="#634700"/>
</g>
<path d="M50.8125 30.0199C50.0316 30.3625 49.1994 30.5896 48.3319 30.6998C49.2244 30.1669 49.9056 29.3296 50.2258 28.3202C49.3937 28.8164 48.4749 29.1668 47.4958 29.3624C46.7057 28.5211 45.5796 28 44.3511 28C41.9676 28 40.0487 29.9346 40.0487 32.3063C40.0487 32.6476 40.0776 32.9757 40.1484 33.2881C36.5693 33.1135 33.4022 31.3981 31.2746 28.7849C30.9032 29.4293 30.6853 30.1669 30.6853 30.961C30.6853 32.452 31.4531 33.7737 32.5976 34.5389C31.9059 34.5257 31.2274 34.3249 30.6525 34.0086C30.6525 34.0217 30.6525 34.0388 30.6525 34.0559C30.6525 36.148 32.1448 37.8857 34.1017 38.2861C33.7513 38.3819 33.3694 38.4278 32.973 38.4278C32.6974 38.4278 32.4191 38.4121 32.1579 38.3543C32.7157 40.0592 34.2986 41.3127 36.1808 41.3534C34.716 42.4992 32.8562 43.1896 30.8428 43.1896C30.4898 43.1896 30.1511 43.1738 29.8125 43.1305C31.7196 44.3603 33.9797 45.0625 36.417 45.0625C44.3392 45.0625 48.6705 38.5 48.6705 32.8116C48.6705 32.6213 48.6639 32.4376 48.6548 32.2551C49.5092 31.6488 50.2271 30.8914 50.8125 30.0199Z" fill="white"/>
<defs>
<filter id="filter0_d_53_4200" x="0.6875" y="0.5" width="78.25" height="78.25" filterUnits="userSpaceOnUse" color-interpolation-filters="sRGB">
<feFlood flood-opacity="0" result="BackgroundImageFix"/>
<feColorMatrix in="SourceAlpha" type="matrix" values="0 0 0 0 0 0 0 0 0 0 0 0 0 0 0 0 0 0 127 0" result="hardAlpha"/>
<feOffset dy="2.625"/>
<feGaussianBlur stdDeviation="6.5625"/>
<feColorMatrix type="matrix" values="0 0 0 0 0 0 0 0 0 0 0 0 0 0 0 0 0 0 0.1 0"/>
<feBlend mode="normal" in2="BackgroundImageFix" result="effect1_dropShadow_53_4200"/>
<feBlend mode="normal" in="SourceGraphic" in2="effect1_dropShadow_53_4200" result="shape"/>
</filter>
</defs>
</svg>
