<svg width="867" height="492" viewBox="0 0 867 492" fill="none" xmlns="http://www.w3.org/2000/svg">
<g clip-path="url(#clip0_76_4448)">
<path d="M766.966 2.98959H107.08C95.23 2.98959 85.6216 12.4922 85.6216 24.1302V465.521H88.7176V21.1406C88.7176 20.1797 88.8244 19.3255 88.9312 18.3646C88.9312 18.0443 89.0379 17.724 89.1447 17.5104C89.2514 17.1901 89.2514 16.9766 89.3582 16.6563C89.465 16.3359 89.465 16.1224 89.5717 15.8021C90.319 13.3464 91.6002 11.2109 93.2016 9.39584C93.4151 9.1823 93.6286 8.96876 93.8421 8.75522C93.9489 8.54168 94.0556 8.43491 94.1624 8.32814C95.0165 7.47397 96.0841 6.6198 97.1517 5.87241C97.472 5.65886 97.899 5.44532 98.3261 5.23178C98.7531 5.01824 99.0734 4.8047 99.5004 4.69793C99.8207 4.59116 100.034 4.37761 100.355 4.27084C102.383 3.41668 104.732 2.98959 107.08 2.98959H766.966C770.062 2.98959 773.051 3.84376 775.613 5.23178C776.04 5.44532 776.36 5.65886 776.787 5.87241C777.321 6.19272 777.748 6.51303 778.175 6.83334C778.389 7.04689 778.602 7.15366 778.816 7.3672C779.136 7.68751 779.457 7.90105 779.777 8.22136C779.884 8.32814 779.99 8.43491 780.097 8.54168C780.311 8.75522 780.524 8.96876 780.738 9.1823C783.513 12.3854 785.222 16.4427 785.222 21.0339V465.521H788.318V22.849C787.677 11.7448 778.389 2.98959 766.966 2.98959Z" fill="url(#paint0_linear_76_4448)"/>
<path d="M85.6216 21.1406C85.6216 9.50261 95.23 0 107.08 0H766.965C778.816 0 788.424 9.50261 788.424 21.1406V22.849C787.784 11.8516 778.389 3.09635 767.072 3.09635H107.08C95.23 3.09635 85.6216 12.599 85.6216 24.237V21.1406Z" fill="url(#paint1_linear_76_4448)"/>
<path d="M785.222 453.242H88.7178V465.628H785.222V453.242Z" fill="black"/>
<path d="M785.222 21.2474V453.242H88.7178V21.2474C88.7178 11.2109 96.9383 3.09634 106.974 3.09634H766.859C777.001 3.09634 785.222 11.2109 785.222 21.2474Z" fill="black"/>
<path d="M788.318 465.521V466.695H785.222H88.7178H85.7285V465.521H788.318Z" fill="black"/>
<path d="M433.447 467.336H0V480.469H433.447V467.336Z" fill="url(#paint2_linear_76_4448)"/>
<path d="M867 466.695H0V467.336H867V466.695Z" fill="url(#paint3_linear_76_4448)"/>
<path d="M866.893 467.336H433.447V480.469H866.893V467.336Z" fill="url(#paint4_linear_76_4448)"/>
<path d="M433.447 467.336H0V479.721H433.447V467.336Z" fill="url(#paint5_linear_76_4448)"/>
<path d="M866.893 467.336H433.447V479.721H866.893V467.336Z" fill="url(#paint6_linear_76_4448)"/>
<path d="M495.154 466.695C495.154 469.471 494.086 472.034 492.165 473.849C490.35 475.664 487.894 476.839 485.012 476.839H381.668C376.116 476.839 371.632 472.354 371.632 466.802H495.154V466.695Z" fill="url(#paint7_linear_76_4448)"/>
<path d="M495.154 466.695C495.154 469.471 494.086 472.034 492.165 473.849C490.35 475.664 487.894 476.839 485.012 476.839H381.668C376.116 476.839 371.632 472.354 371.632 466.802H371.099V467.549C371.099 473.102 375.583 477.586 381.134 477.586H485.439C490.99 477.586 495.474 473.102 495.474 467.549V466.802H495.154V466.695Z" fill="url(#paint8_linear_76_4448)"/>
<path d="M0 480.469C30.5334 488.156 62.2412 492 94.1626 492H433.447H772.731C804.652 492 836.36 488.049 866.893 480.469H433.447H0Z" fill="url(#paint9_linear_76_4448)"/>
<path d="M770.679 29H103V442.096H770.679V29Z" fill="#CCE6ED"/>
<path opacity="0.22" d="M370.723 377.303H558.157C603.667 377.303 643.699 353.028 653.813 318.471C658.954 300.94 656.173 281.975 635.272 265.118C576.277 217.496 640.413 211.344 617.32 153.776C593.554 94.7758 485.594 51.7899 363.138 86.0944C179.665 137.425 194.329 384.214 370.723 377.303Z" fill="#48CFEF"/>
<path opacity="0.22" d="M389.096 377.303H538.1C574.255 377.303 606.028 358.001 614.118 330.524C618.164 316.617 615.972 301.53 599.37 288.128C552.511 250.284 603.415 245.395 585.127 199.712C566.164 152.849 480.369 118.713 383.028 145.938C237.311 186.732 248.942 382.781 389.096 377.303Z" fill="#48CFEF"/>
<path d="M545.937 174.511C463.681 173.415 323.864 272.957 298.497 245.479" stroke="white" stroke-width="2.2565" stroke-miterlimit="10" stroke-dasharray="4.16 4.16"/>
<path opacity="0.56" d="M439.325 407.477C494.063 407.477 538.436 404.572 538.436 400.987C538.436 397.403 494.063 394.497 439.325 394.497C384.588 394.497 340.214 397.403 340.214 400.987C340.214 404.572 384.588 407.477 439.325 407.477Z" fill="#52A4E2"/>
<path d="M499.837 398.627L401.737 403.516C392.298 404.022 383.449 398.712 379.403 390.199L287.877 198.111C284.591 191.199 285.265 184.203 290.406 177.123L290.827 176.365L517.872 385.9C513.995 392.98 507.927 398.206 499.837 398.627Z" fill="#0B283E"/>
<path d="M516.187 386.659L399.04 392.559C395.753 392.727 392.719 390.957 391.287 388.007L290.743 180.832C289.31 177.882 291.417 174.51 294.704 174.51H409.912C413.03 174.51 415.811 176.281 417.244 179.062L517.872 383.877C518.462 385.141 517.619 386.574 516.187 386.659Z" fill="#0F3552"/>
<path d="M298.665 186.395C298.412 185.889 298.581 185.383 298.749 185.215C298.918 184.962 299.171 184.625 299.761 184.625H411.85C413.705 184.625 415.474 185.721 416.317 187.406L505.483 369.801L390.781 373.763C383.027 358.507 298.665 186.395 298.665 186.395Z" fill="#3094D1"/>
<path opacity="0.27" d="M374.262 352.776L290.743 180.832C289.31 177.882 291.417 174.51 294.704 174.51H409.912C413.03 174.51 374.262 352.776 374.262 352.776Z" fill="#84BDF1"/>
<path opacity="0.56" d="M447.501 300.265L427.442 324.877L507.759 387.08L516.187 386.659L458.204 328.164L447.501 300.265Z" fill="#52A4E2"/>
<path d="M439.747 383.371L439.915 383.709C440.59 385.226 442.107 386.237 443.792 386.153L467.643 384.889C470.508 384.72 472.278 381.77 471.014 379.157C470.34 377.724 468.823 376.797 467.306 376.881L443.287 377.809C440.505 377.977 438.651 380.843 439.747 383.371Z" fill="#0B283E"/>
<mask id="mask0_76_4448" style="mask-type:luminance" maskUnits="userSpaceOnUse" x="360" y="143" width="158" height="206">
<path d="M391.751 340.264L360.543 175.285C359.545 169.752 363.178 164.443 368.645 163.392L473.861 143.532C479.393 142.534 484.702 146.167 485.753 151.635L516.961 316.613C517.959 322.147 514.327 327.456 508.859 328.507L403.643 348.367C398.111 349.365 392.802 345.732 391.751 340.264Z" fill="white"/>
</mask>
<g mask="url(#mask0_76_4448)">
<path d="M551.883 256.893L406.909 136.759L325.61 234.888L470.585 355.021L551.883 256.893Z" fill="#FECD29"/>
</g>
<mask id="mask1_76_4448" style="mask-type:luminance" maskUnits="userSpaceOnUse" x="360" y="143" width="158" height="206">
<path d="M391.751 340.264L360.543 175.285C359.545 169.752 363.178 164.443 368.645 163.392L473.861 143.532C479.393 142.534 484.702 146.167 485.753 151.635L516.961 316.613C517.959 322.147 514.327 327.456 508.859 328.507L403.643 348.367C398.111 349.365 392.802 345.732 391.751 340.264Z" fill="white"/>
</mask>
<g mask="url(#mask1_76_4448)">
<path opacity="0.3" d="M551.883 256.893L406.909 136.759L325.61 234.888L470.585 355.021L551.883 256.893Z" fill="#FECD29"/>
</g>
<mask id="mask2_76_4448" style="mask-type:luminance" maskUnits="userSpaceOnUse" x="329" y="141" width="219" height="210">
<path d="M462.754 348.561L333.472 241.434C329.174 237.809 328.584 231.404 332.123 227.105L400.473 144.673C404.097 140.375 410.502 139.785 414.8 143.325L544.082 250.452C548.381 254.077 548.971 260.482 545.431 264.781L477.081 347.213C473.457 351.511 467.052 352.101 462.754 348.561Z" fill="white"/>
</mask>
<g mask="url(#mask2_76_4448)">
<path opacity="0.59" d="M440.758 243.457L331.028 235.281L469.918 352.86L440.758 243.457Z" fill="#FECD29"/>
</g>
<mask id="mask3_76_4448" style="mask-type:luminance" maskUnits="userSpaceOnUse" x="329" y="141" width="219" height="210">
<path d="M462.754 348.561L333.472 241.434C329.174 237.809 328.584 231.404 332.123 227.105L400.473 144.673C404.097 140.375 410.502 139.785 414.8 143.325L544.082 250.452C548.381 254.077 548.971 260.482 545.431 264.781L477.081 347.213C473.457 351.511 467.052 352.101 462.754 348.561Z" fill="white"/>
</mask>
<g mask="url(#mask3_76_4448)">
<path d="M438.735 245.901L325.634 234.944L470.592 355.051L438.735 245.901Z" fill="#FECD29"/>
</g>
<mask id="mask4_76_4448" style="mask-type:luminance" maskUnits="userSpaceOnUse" x="329" y="141" width="219" height="210">
<path d="M462.754 348.561L333.472 241.434C329.174 237.809 328.584 231.404 332.123 227.105L400.473 144.673C404.097 140.375 410.502 139.785 414.8 143.325L544.082 250.452C548.381 254.077 548.971 260.482 545.431 264.781L477.081 347.213C473.457 351.511 467.052 352.101 462.754 348.561Z" fill="white"/>
</mask>
<g mask="url(#mask4_76_4448)">
<path opacity="0.59" d="M417.244 256.184L394.236 166.925C393.393 163.638 393.225 158.833 394.995 155.968L405.108 141.049L548.634 259.977L536.666 270.85C534.138 273.125 528.66 275.738 525.289 275.485L432.836 268.995C425.335 268.405 419.098 263.264 417.244 256.184Z" fill="#FECD29"/>
</g>
<mask id="mask5_76_4448" style="mask-type:luminance" maskUnits="userSpaceOnUse" x="329" y="141" width="219" height="210">
<path d="M462.754 348.561L333.472 241.434C329.174 237.809 328.584 231.404 332.123 227.105L400.473 144.673C404.097 140.375 410.502 139.785 414.8 143.325L544.082 250.452C548.381 254.077 548.971 260.482 545.431 264.781L477.081 347.213C473.457 351.511 467.052 352.101 462.754 348.561Z" fill="white"/>
</mask>
<g mask="url(#mask5_76_4448)">
<path d="M420.025 252.728L396.09 162.71C395.247 159.423 395.669 155.968 397.439 153.018L406.962 136.75L551.92 256.858L537.846 269.248C535.317 271.524 531.946 272.62 528.575 272.367L435.617 265.54C428.116 265.034 421.964 259.892 420.025 252.728Z" fill="#FECD29"/>
</g>
<path d="M356.902 191.031L413.705 319.483L365.582 313.245L311.392 202.409L356.902 191.031Z" fill="#3094D1"/>
<path d="M520.232 198.869C520.232 198.869 522.086 216.822 522.676 220.278C523.266 223.734 509.36 219.604 509.36 219.604C509.36 219.604 510.962 211.259 510.035 207.382C509.192 203.505 520.232 198.869 520.232 198.869Z" fill="#896F68"/>
<path d="M496.972 293.775C496.972 293.775 507.759 329.091 510.793 334.486C510.793 334.486 510.035 340.638 513.49 345.274C516.946 349.91 528.323 395.677 528.323 395.677C528.323 395.677 515.007 399.554 512.31 402.252C509.613 404.949 534.812 404.527 536.751 403.347C539.363 401.746 535.992 395.424 535.992 395.424C535.992 395.424 541.976 366.43 538.184 353.703C535.487 344.684 527.902 341.734 529.419 334.064C530.936 326.394 534.644 290.151 527.649 280.542C520.822 270.934 496.972 293.775 496.972 293.775Z" fill="#896F68"/>
<path d="M531.104 321.337C532.284 307.43 532.706 287.37 527.818 280.542C520.907 270.934 497.056 293.775 497.056 293.775C497.056 293.775 502.956 313.161 507.338 325.467C512.31 323.95 522.34 321.421 531.104 321.337Z" fill="#33C7CA"/>
<path opacity="0.15" d="M531.104 321.337C532.284 307.43 532.706 287.37 527.818 280.542C520.907 270.934 497.056 293.775 497.056 293.775C497.056 293.775 502.956 313.161 507.338 325.467C512.31 323.95 522.34 321.421 531.104 321.337Z" fill="#33C7CA"/>
<path opacity="0.49" d="M519.137 345.274C515.344 340.891 516.861 335.834 516.272 333.306C512.226 317.038 517.62 299.423 517.62 299.423H498.742C501.944 309.621 508.518 330.356 510.793 334.401C510.793 334.401 510.035 340.554 513.49 345.19C515.934 348.393 522.171 371.824 525.795 385.647C525.795 385.647 522.508 349.151 519.137 345.274Z" fill="#896F68"/>
<path d="M530.683 278.688C530.683 278.688 528.997 305.238 505.399 304.817C481.717 304.395 454.327 270.85 458.709 263.179C465.452 251.379 477.251 257.617 501.775 269.332C526.216 281.132 530.683 278.688 530.683 278.688Z" fill="#896F68"/>
<path d="M471.941 274.98C471.941 274.98 469.244 294.45 463.934 299.675C458.625 304.985 441.348 316.954 441.348 319.82C441.348 322.685 441.179 328.08 437.387 328.08C435.364 328.08 412.356 319.82 415.222 317.375C418.087 314.931 431.993 316.111 431.993 316.111C431.993 316.111 455.254 259.134 462.165 258.881C469.075 258.628 471.941 274.98 471.941 274.98Z" fill="#896F68"/>
<path d="M481.38 259.977C482.391 264.022 485.678 279.447 479.947 294.197C487.785 300.181 496.887 304.733 505.399 304.817C529.081 305.238 530.683 278.688 530.683 278.688C530.683 278.688 526.216 281.132 501.691 269.332C493.685 265.455 486.942 262.168 481.38 259.977Z" fill="#33C7CA"/>
<path d="M468.233 193.812L466.041 191.958C466.041 191.115 465.452 188.586 466.294 185.299C467.137 181.928 466.379 179.146 465.199 178.725C464.44 178.472 464.524 177.123 463.26 177.123C461.912 177.123 462.08 175.859 460.395 176.281C459.384 176.533 458.962 175.859 458.204 175.859C456.939 175.859 456.518 176.028 455.254 176.618C455.254 176.618 458.204 178.725 457.445 182.349C457.108 184.035 457.192 186.732 458.794 188.839C459.384 189.682 459.636 190.693 459.468 191.705L458.709 195.245L468.233 193.812Z" fill="#896F68"/>
<path d="M517.283 226.684L522.171 217.159C522.171 217.159 530.093 231.572 532.79 236.124C535.824 241.265 545.516 250.537 534.897 260.567C524.278 270.597 511.215 270.007 511.215 270.007L517.283 226.684Z" fill="#9EC700"/>
<path opacity="0.2" d="M517.283 226.684L522.171 217.159C522.171 217.159 530.093 231.572 532.79 236.124C535.824 241.265 545.516 250.537 534.897 260.567C524.278 270.597 511.215 270.007 511.215 270.007L517.283 226.684Z" fill="#9EC700"/>
<path opacity="0.2" d="M525.458 231.994C525.458 231.994 533.464 247.839 533.464 250.705C533.464 253.571 527.48 258.965 527.48 258.965L525.458 231.994Z" fill="#9EC700"/>
<path d="M499.921 197.352C499.837 197.605 499.753 197.773 499.753 198.026C498.741 202.072 500.006 205.949 501.607 209.574C505.821 218.929 520.654 209.405 522.424 201.651C524.446 192.969 521.496 185.383 514.754 183.023C510.54 181.591 505.315 181.422 501.944 188.418C501.27 189.935 501.438 191.621 501.101 193.222C500.764 194.571 500.343 195.919 499.921 197.352Z" fill="#896F68"/>
<path opacity="0.4" d="M522.76 199.712L511.214 186.142C511.214 186.142 509.781 190.103 506.242 194.908C502.534 199.965 509.36 210.079 504.809 212.776C506.41 213.451 508.264 213.451 510.203 212.945C509.95 216.316 509.36 219.519 509.36 219.519C509.36 219.519 523.266 223.565 522.676 220.194C522.339 218.086 521.496 210.501 520.906 204.938C521.665 203.842 522.17 202.662 522.423 201.566C522.592 200.976 522.676 200.386 522.76 199.712Z" fill="#896F68"/>
<path d="M524.362 185.383C524.362 185.383 525.036 183.192 528.323 182.181C532.031 181.085 535.908 182.518 536.666 186.058C537.678 190.609 536.498 192.885 534.559 195.161C532.537 197.436 528.744 198.111 527.312 196.256C525.963 194.402 524.362 185.383 524.362 185.383Z" fill="#0F3552"/>
<path opacity="0.34" d="M524.362 185.383C524.362 185.383 525.036 183.192 528.323 182.181C532.031 181.085 535.908 182.518 536.666 186.058C537.678 190.609 536.498 192.885 534.559 195.161C532.537 197.436 528.744 198.111 527.312 196.256C525.963 194.402 524.362 185.383 524.362 185.383Z" fill="#0F3552"/>
<path d="M512.142 180.411C512.142 180.411 509.276 182.012 506.074 181.085C502.787 180.242 498.152 179.568 496.382 182.181C494.696 184.793 496.55 191.283 503.04 191.199C509.614 191.031 508.855 197.773 510.035 196.846C511.131 196.003 510.625 194.402 513.406 194.739C516.272 194.992 516.356 200.724 513.153 201.314C509.866 201.904 514.755 214.378 521.244 214.546C521.244 214.546 529.756 208.899 530.514 201.482C531.189 194.065 531.526 189.261 528.66 185.552C525.795 181.759 516.44 178.219 512.142 180.411Z" fill="#0F3552"/>
<path d="M509.529 216.485C509.529 216.485 514.249 221.711 522.171 217.244C522.171 217.244 524.362 226.178 529.081 249.441C533.717 271.861 532.115 284.672 530.767 290.404C530.767 290.404 510.372 291.078 501.86 278.267C493.348 265.455 488.881 263.348 488.881 263.348L496.972 231.741L509.529 216.485Z" fill="#9EC700"/>
<path opacity="0.44" d="M512.142 238.231C513.575 243.794 492.589 248.429 492.589 248.429L495.708 235.365C495.792 235.365 511.468 235.197 512.142 238.231Z" fill="#9EC700"/>
<path d="M516.103 222.301C516.103 222.301 513.996 215.474 498.236 216.822C488.965 217.665 477.672 216.654 477.672 216.654L467.053 188.671H457.024C457.024 188.671 455.507 221.626 466.294 230.308C474.891 237.304 491.494 243.288 506.664 242.024C521.834 240.759 516.103 222.301 516.103 222.301Z" fill="#9EC700"/>
<path opacity="0.34" d="M524.699 182.433C527.396 192.211 523.603 195.582 513.406 194.739C512.057 194.655 513.069 200.302 512.31 201.061C511.13 206.286 515.934 214.378 521.159 214.462C521.159 214.462 529.671 208.815 530.43 201.398C531.104 193.981 531.441 189.176 528.576 185.468C527.817 184.372 526.385 183.276 524.699 182.433Z" fill="#0F3552"/>
<path d="M510.203 197.268C510.203 197.268 509.782 193.643 512.479 193.391C515.26 193.138 515.85 195.919 515.934 197.605C516.018 199.375 514.164 203.842 511.383 201.398" fill="#896F68"/>
<path opacity="0.4" d="M510.203 197.268C510.203 197.268 509.782 193.643 512.479 193.391C515.26 193.138 515.85 195.919 515.934 197.605C516.018 199.375 514.164 203.842 511.383 201.398" fill="#896F68"/>
<path d="M526.047 183.192C526.047 183.192 526.469 193.643 530.683 197.268L531.778 197.099C531.863 197.099 527.901 193.896 526.047 183.192Z" fill="#FECD29"/>
<path opacity="0.49" d="M470.677 275.232C470.677 275.232 471.772 278.941 470.002 285.094C470.002 285.094 481.211 295.714 485.088 297.568L474.385 285.6C473.711 284.841 473.289 283.83 473.205 282.734C473.036 280.964 472.531 278.014 470.677 275.232Z" fill="#896F68"/>
<path d="M536.077 395.424C536.077 395.424 527.986 399.723 516.271 399.892C514.502 400.65 513.069 401.493 512.395 402.167C509.698 404.864 534.897 404.443 536.835 403.263C539.448 401.746 536.077 395.424 536.077 395.424Z" fill="#0F3552"/>
<path d="M420.616 316.027C418.256 316.195 416.149 316.617 415.222 317.375C412.357 319.82 435.28 328.08 437.387 328.08C441.18 328.08 441.348 322.686 441.348 319.82C441.348 319.904 431.403 321.843 420.616 316.027Z" fill="#0F3552"/>
<path opacity="0.27" d="M356.902 191.031L391.877 270.091L382.269 315.353L365.582 313.245L311.392 202.409L356.902 191.031Z" fill="#84BDF1"/>
<path d="M432.415 179.568C441.863 179.568 449.523 171.907 449.523 162.458C449.523 153.008 441.863 145.348 432.415 145.348C422.966 145.348 415.306 153.008 415.306 162.458C415.306 171.907 422.966 179.568 432.415 179.568Z" fill="#FA3900"/>
<path d="M431.825 177.713C441.273 177.713 448.933 170.053 448.933 160.603C448.933 151.154 441.273 143.493 431.825 143.493C422.376 143.493 414.716 151.154 414.716 160.603C414.716 170.053 422.376 177.713 431.825 177.713Z" fill="#FA3900"/>
<path d="M435.297 153.824V170.804H431.367V156.977H427.971V153.824H435.297Z" fill="white"/>
<path d="M605.1 175.185C605.1 175.185 624.147 167.178 630.13 171.476C636.114 175.775 637.631 193.812 643.952 197.773C643.952 197.773 629.625 194.739 625.832 186.142C625.832 186.142 619.511 189.345 615.55 182.181C615.55 182.265 604.426 184.456 605.1 175.185Z" fill="white"/>
<path d="M574.76 162.289C574.76 162.289 567.259 143.072 560.011 141.723C552.763 140.375 538.773 151.838 531.525 150.068C531.525 150.068 543.661 158.243 552.426 155.04C552.426 155.04 554.533 161.783 562.371 159.676C562.455 159.676 568.608 169.2 574.76 162.289Z" fill="white"/>
<mask id="mask6_76_4448" style="mask-type:luminance" maskUnits="userSpaceOnUse" x="560" y="143" width="56" height="56">
<path d="M591.378 197.46L561.472 166.844C560.458 165.777 560.503 164.15 561.538 163.214L581.106 144.112C582.173 143.098 583.801 143.143 584.737 144.178L614.642 174.794C615.656 175.861 615.611 177.488 614.577 178.424L595.008 197.526C594.052 198.495 592.424 198.45 591.378 197.46Z" fill="white"/>
</mask>
<g mask="url(#mask6_76_4448)">
<path d="M616.508 165.153L572.235 146.502L559.64 176.407L603.912 195.058L616.508 165.153Z" fill="#FECD29"/>
</g>
<mask id="mask7_76_4448" style="mask-type:luminance" maskUnits="userSpaceOnUse" x="560" y="143" width="56" height="56">
<path d="M591.378 197.46L561.472 166.844C560.458 165.777 560.503 164.15 561.538 163.214L581.106 144.112C582.173 143.098 583.801 143.143 584.737 144.178L614.642 174.794C615.656 175.861 615.611 177.488 614.577 178.424L595.008 197.526C594.052 198.495 592.424 198.45 591.378 197.46Z" fill="white"/>
</mask>
<g mask="url(#mask7_76_4448)">
<path opacity="0.3" d="M616.508 165.153L572.235 146.502L559.64 176.407L603.912 195.058L616.508 165.153Z" fill="#FECD29"/>
</g>
<mask id="mask8_76_4448" style="mask-type:luminance" maskUnits="userSpaceOnUse" x="560" y="147" width="56" height="48">
<path d="M601.476 194.065L562.034 177.461C560.686 176.871 560.096 175.353 560.686 174.089L571.305 148.888C571.895 147.539 573.412 146.949 574.676 147.539L614.118 164.143C615.467 164.733 616.056 166.25 615.467 167.515L604.848 192.716C604.342 193.981 602.825 194.571 601.476 194.065Z" fill="white"/>
</mask>
<g mask="url(#mask8_76_4448)">
<path opacity="0.59" d="M588.413 170.043L561.023 176.112L603.583 194.571L588.413 170.043Z" fill="#FECD29"/>
</g>
<mask id="mask9_76_4448" style="mask-type:luminance" maskUnits="userSpaceOnUse" x="560" y="147" width="56" height="48">
<path d="M601.476 194.065L562.034 177.461C560.686 176.871 560.096 175.353 560.686 174.089L571.305 148.888C571.895 147.539 573.412 146.949 574.676 147.539L614.118 164.143C615.467 164.733 616.056 166.25 615.467 167.515L604.848 192.716C604.342 193.981 602.825 194.571 601.476 194.065Z" fill="white"/>
</mask>
<g mask="url(#mask9_76_4448)">
<path d="M588.076 170.802L559.675 176.449L603.921 195.076L588.076 170.802Z" fill="#FECD29"/>
</g>
<mask id="mask10_76_4448" style="mask-type:luminance" maskUnits="userSpaceOnUse" x="560" y="147" width="56" height="48">
<path d="M601.476 194.065L562.034 177.461C560.686 176.871 560.096 175.353 560.686 174.089L571.305 148.888C571.895 147.539 573.412 146.949 574.676 147.539L614.118 164.143C615.467 164.733 616.056 166.25 615.467 167.515L604.848 192.716C604.342 193.981 602.825 194.571 601.476 194.065Z" fill="white"/>
</mask>
<g mask="url(#mask10_76_4448)">
<path opacity="0.59" d="M583.609 174.848L571.389 154.788C570.968 154.029 570.546 152.933 570.799 152.09L572.147 147.708L615.972 166.166L613.865 169.706C613.444 170.465 612.264 171.476 611.421 171.729L588.413 176.955C586.475 177.292 584.536 176.449 583.609 174.848Z" fill="#FECD29"/>
</g>
<mask id="mask11_76_4448" style="mask-type:luminance" maskUnits="userSpaceOnUse" x="560" y="147" width="56" height="48">
<path d="M601.476 194.065L562.034 177.461C560.686 176.871 560.096 175.353 560.686 174.089L571.305 148.888C571.895 147.539 573.412 146.949 574.676 147.539L614.118 164.143C615.467 164.733 616.056 166.25 615.467 167.515L604.848 192.716C604.342 193.981 602.825 194.571 601.476 194.065Z" fill="white"/>
</mask>
<g mask="url(#mask11_76_4448)">
<path d="M584.03 173.836L571.557 153.608C571.136 152.849 570.967 152.006 571.136 151.163L572.231 146.528L616.477 165.155L613.949 169.2C613.528 169.959 612.769 170.465 611.926 170.633L588.75 175.775C586.896 176.196 584.957 175.438 584.03 173.836Z" fill="#FECD29"/>
</g>
<path d="M616.646 303.384C616.646 303.384 631.479 293.775 637.21 296.473C642.941 299.17 646.902 314.173 652.801 316.617C652.801 316.617 640.244 316.195 635.777 309.537C635.777 309.537 630.889 313.161 626.507 307.767C626.591 307.767 617.489 311.307 616.646 303.384Z" fill="white"/>
<path d="M589.087 297.063C589.087 297.063 579.901 281.891 573.58 281.891C567.259 281.807 557.146 293.607 550.741 293.185C550.741 293.185 562.203 298.327 569.113 294.281C569.113 294.281 571.895 299.675 578.215 296.725C578.3 296.725 584.958 303.89 589.087 297.063Z" fill="white"/>
<mask id="mask12_76_4448" style="mask-type:luminance" maskUnits="userSpaceOnUse" x="577" y="281" width="49" height="42">
<path d="M612.217 322.729L579.061 306.945C577.966 306.438 577.486 305.12 578.011 303.942L588.056 282.796C588.563 281.701 589.881 281.221 591.058 281.746L624.214 297.531C625.309 298.037 625.789 299.356 625.264 300.533L615.219 321.679C614.63 322.756 613.312 323.236 612.217 322.729Z" fill="white"/>
</mask>
<g mask="url(#mask12_76_4448)">
<path d="M624.768 293.163L584.569 284.082L578.424 311.294L618.623 320.375L624.768 293.163Z" fill="#26A5B4"/>
</g>
<mask id="mask13_76_4448" style="mask-type:luminance" maskUnits="userSpaceOnUse" x="577" y="281" width="49" height="42">
<path d="M612.217 322.729L579.061 306.945C577.966 306.438 577.486 305.12 578.011 303.942L588.056 282.796C588.563 281.701 589.881 281.221 591.058 281.746L624.214 297.531C625.309 298.037 625.789 299.356 625.264 300.533L615.219 321.679C614.63 322.756 613.312 323.236 612.217 322.729Z" fill="white"/>
</mask>
<g mask="url(#mask13_76_4448)">
<path opacity="0.3" d="M624.768 293.163L584.569 284.082L578.424 311.294L618.623 320.375L624.768 293.163Z" fill="#26A5B4"/>
</g>
<mask id="mask14_76_4448" style="mask-type:luminance" maskUnits="userSpaceOnUse" x="578" y="284" width="47" height="36">
<path d="M616.477 319.904L580.659 311.813C579.479 311.56 578.721 310.38 578.973 309.115L584.114 286.274C584.367 285.094 585.547 284.335 586.811 284.588L622.629 292.68C623.809 292.932 624.568 294.113 624.315 295.377L619.174 318.218C618.837 319.398 617.657 320.157 616.477 319.904Z" fill="white"/>
</mask>
<g mask="url(#mask14_76_4448)">
<path opacity="0.59" d="M601.813 301.614L579.563 310.885L618.331 319.988L601.813 301.614Z" fill="#26A5B4"/>
</g>
<mask id="mask15_76_4448" style="mask-type:luminance" maskUnits="userSpaceOnUse" x="578" y="284" width="47" height="36">
<path d="M616.477 319.904L580.659 311.813C579.479 311.56 578.721 310.38 578.973 309.115L584.114 286.274C584.367 285.094 585.547 284.335 586.811 284.588L622.629 292.68C623.809 292.932 624.568 294.113 624.315 295.377L619.174 318.218C618.837 319.398 617.657 320.157 616.477 319.904Z" fill="white"/>
</mask>
<g mask="url(#mask15_76_4448)">
<path d="M601.644 302.288L578.468 311.307L618.668 320.41L601.644 302.288Z" fill="#26A5B4"/>
</g>
<mask id="mask16_76_4448" style="mask-type:luminance" maskUnits="userSpaceOnUse" x="578" y="284" width="47" height="36">
<path d="M616.477 319.904L580.659 311.813C579.479 311.56 578.721 310.38 578.973 309.115L584.114 286.274C584.367 285.094 585.547 284.335 586.811 284.588L622.629 292.68C623.809 292.932 624.568 294.113 624.315 295.377L619.174 318.218C618.837 319.398 617.657 320.157 616.477 319.904Z" fill="white"/>
</mask>
<g mask="url(#mask16_76_4448)">
<path opacity="0.59" d="M598.442 306.418L585.126 291.331C584.62 290.741 584.114 289.814 584.199 289.14L584.704 285.262L624.484 294.281L623.219 297.568C622.967 298.243 622.124 299.338 621.45 299.591L602.74 307.514C601.223 307.935 599.537 307.598 598.442 306.418Z" fill="#26A5B4"/>
</g>
<mask id="mask17_76_4448" style="mask-type:luminance" maskUnits="userSpaceOnUse" x="578" y="284" width="47" height="36">
<path d="M616.477 319.904L580.659 311.813C579.479 311.56 578.721 310.38 578.973 309.115L584.114 286.274C584.367 285.094 585.547 284.335 586.811 284.588L622.629 292.68C623.809 292.932 624.568 294.113 624.315 295.377L619.174 318.218C618.837 319.398 617.657 320.157 616.477 319.904Z" fill="white"/>
</mask>
<g mask="url(#mask17_76_4448)">
<path d="M598.694 305.407L585.126 290.235C584.62 289.645 584.367 288.971 584.452 288.212L584.704 284.082L624.905 293.185L623.388 296.978C623.135 297.653 622.545 298.243 621.871 298.495L603.077 306.334C601.476 307.008 599.706 306.671 598.694 305.407Z" fill="#26A5B4"/>
</g>
<path d="M306.756 270.765C306.756 270.765 315.521 244.721 325.128 242.529C334.652 240.338 353.952 254.667 363.475 251.885C363.475 251.885 347.799 263.517 336 259.724C336 259.724 333.556 268.827 323.022 266.467C323.022 266.551 315.352 279.615 306.756 270.765Z" fill="white"/>
<path d="M267.23 289.645C267.23 289.645 241.441 280.121 233.771 286.19C226.102 292.258 225.175 316.28 217 321.927C217 321.927 235.878 317.038 240.345 305.491C240.345 305.491 248.941 309.368 253.745 299.675C253.745 299.675 268.747 301.951 267.23 289.645Z" fill="white"/>
<path d="M322.432 290.994L271.191 315.69C269.506 316.533 267.399 315.774 266.556 314.088L250.796 281.385C249.953 279.7 250.712 277.592 252.397 276.75L303.638 252.054C305.324 251.211 307.431 251.969 308.273 253.655L324.033 286.358C324.876 288.044 324.118 290.151 322.432 290.994Z" fill="#9EC700"/>
<mask id="mask18_76_4448" style="mask-type:luminance" maskUnits="userSpaceOnUse" x="252" y="246" width="71" height="75">
<path d="M322.062 275.063L286.625 319.561C285.472 321.052 283.245 321.284 281.754 320.131L253.36 297.517C251.868 296.364 251.637 294.137 252.789 292.646L288.227 248.148C289.379 246.657 291.607 246.425 293.098 247.578L321.492 270.192C322.983 271.345 323.215 273.572 322.062 275.063Z" fill="white"/>
</mask>
<g mask="url(#mask18_76_4448)">
<path d="M306.776 250.528L249.305 278.233L268.04 317.105L325.511 289.4L306.776 250.528Z" fill="#9EC700"/>
</g>
<mask id="mask19_76_4448" style="mask-type:luminance" maskUnits="userSpaceOnUse" x="252" y="246" width="71" height="75">
<path d="M322.062 275.063L286.625 319.561C285.472 321.052 283.245 321.284 281.754 320.131L253.36 297.517C251.868 296.364 251.637 294.137 252.789 292.646L288.227 248.148C289.379 246.657 291.607 246.425 293.098 247.578L321.492 270.192C322.983 271.345 323.215 273.572 322.062 275.063Z" fill="white"/>
</mask>
<g mask="url(#mask19_76_4448)">
<path opacity="0.3" d="M306.776 250.528L249.305 278.233L268.04 317.105L325.511 289.4L306.776 250.528Z" fill="#9EC700"/>
</g>
<mask id="mask20_76_4448" style="mask-type:luminance" maskUnits="userSpaceOnUse" x="250" y="251" width="75" height="66">
<path d="M322.432 290.994L271.191 315.69C269.506 316.533 267.399 315.774 266.556 314.088L250.796 281.385C249.953 279.7 250.712 277.592 252.397 276.75L303.638 252.054C305.324 251.211 307.431 251.969 308.273 253.655L324.033 286.358C324.876 288.044 324.118 290.151 322.432 290.994Z" fill="white"/>
</mask>
<g mask="url(#mask20_76_4448)">
<path opacity="0.59" d="M286.951 282.902L268.916 315.521L324.792 289.308L286.951 282.902Z" fill="#9EC700"/>
</g>
<mask id="mask21_76_4448" style="mask-type:luminance" maskUnits="userSpaceOnUse" x="250" y="251" width="75" height="66">
<path d="M322.432 290.994L271.191 315.69C269.506 316.533 267.399 315.774 266.556 314.088L250.796 281.385C249.953 279.7 250.712 277.592 252.397 276.75L303.638 252.054C305.324 251.211 307.431 251.969 308.273 253.655L324.033 286.358C324.876 288.044 324.118 290.151 322.432 290.994Z" fill="white"/>
</mask>
<g mask="url(#mask21_76_4448)">
<path d="M287.372 283.83L268.073 317.123L325.55 289.477L287.372 283.83Z" fill="#9EC700"/>
</g>
<mask id="mask22_76_4448" style="mask-type:luminance" maskUnits="userSpaceOnUse" x="250" y="251" width="75" height="66">
<path d="M322.432 290.994L271.191 315.69C269.506 316.533 267.399 315.774 266.556 314.088L250.796 281.385C249.953 279.7 250.712 277.592 252.397 276.75L303.638 252.054C305.324 251.211 307.431 251.969 308.273 253.655L324.033 286.358C324.876 288.044 324.118 290.151 322.432 290.994Z" fill="white"/>
</mask>
<g mask="url(#mask22_76_4448)">
<path opacity="0.59" d="M287.54 291.921L256.779 286.442C255.683 286.274 254.166 285.6 253.492 284.672L250.29 279.447L307.177 252.054L308.863 257.279C309.2 258.375 309.284 260.482 308.694 261.494L293.693 288.971C292.429 291.162 289.984 292.342 287.54 291.921Z" fill="#9EC700"/>
</g>
<mask id="mask23_76_4448" style="mask-type:luminance" maskUnits="userSpaceOnUse" x="250" y="251" width="75" height="66">
<path d="M322.432 290.994L271.191 315.69C269.506 316.533 267.399 315.774 266.556 314.088L250.796 281.385C249.953 279.7 250.712 277.592 252.397 276.75L303.638 252.054C305.324 251.211 307.431 251.969 308.273 253.655L324.033 286.358C324.876 288.044 324.118 290.151 322.432 290.994Z" fill="white"/>
</mask>
<g mask="url(#mask23_76_4448)">
<path d="M286.867 290.572L255.768 285.262C254.673 285.094 253.661 284.42 252.987 283.492L249.363 278.267L306.841 250.537L308.695 256.605C309.032 257.701 308.864 258.881 308.358 259.892L293.104 287.538C291.755 289.814 289.311 290.994 286.867 290.572Z" fill="#9EC700"/>
</g>
<path d="M494.106 88.033C494.106 88.033 493.011 70.3329 498.236 66.7086C503.377 63.0843 518.378 66.9614 523.435 63C523.435 63 516.861 73.7043 508.939 74.3786C508.939 74.3786 509.698 80.4472 502.871 81.5429C502.787 81.5429 501.439 91.2358 494.106 88.033Z" fill="white"/>
<path d="M467.896 103.794C467.896 103.794 451.715 96.6302 446.489 100.254C441.264 103.879 439.747 119.303 434.269 122.59C434.269 122.59 446.658 120.23 449.945 112.897C449.945 112.897 455.339 115.679 458.794 109.695C458.794 109.695 468.402 111.717 467.896 103.794Z" fill="white"/>
<path d="M502.112 96.3773L471.435 116.522C470.424 117.196 468.991 116.943 468.317 115.847L455.507 96.293C454.832 95.2816 455.085 93.8487 456.181 93.1744L486.858 73.1143C487.869 72.44 489.302 72.6929 489.976 73.7886L502.787 93.343C503.461 94.3544 503.124 95.703 502.112 96.3773Z" fill="#D0D9E9"/>
<mask id="mask24_76_4448" style="mask-type:luminance" maskUnits="userSpaceOnUse" x="458" y="71" width="42" height="48">
<path d="M499.21 83.5273L484.598 117.196C484.122 118.314 482.785 118.889 481.62 118.342L460.187 109.014C459.068 108.538 458.494 107.201 459.041 106.036L473.699 72.4377C474.175 71.3193 475.512 70.7451 476.676 71.2917L498.11 80.62C499.229 81.0961 499.686 82.4088 499.21 83.5273Z" fill="white"/>
</mask>
<g mask="url(#mask24_76_4448)">
<path d="M488.734 71.8517L454.268 94.4508L469.563 117.782L504.029 95.183L488.734 71.8517Z" fill="#33C7CA"/>
</g>
<mask id="mask25_76_4448" style="mask-type:luminance" maskUnits="userSpaceOnUse" x="458" y="71" width="42" height="48">
<path d="M499.21 83.5273L484.598 117.196C484.122 118.314 482.785 118.889 481.62 118.342L460.187 109.014C459.068 108.538 458.494 107.201 459.041 106.036L473.699 72.4377C474.175 71.3193 475.512 70.7451 476.676 71.2917L498.11 80.62C499.229 81.0961 499.686 82.4088 499.21 83.5273Z" fill="white"/>
</mask>
<g mask="url(#mask25_76_4448)">
<path opacity="0.3" d="M488.734 71.8517L454.268 94.4508L469.563 117.782L504.029 95.183L488.734 71.8517Z" fill="#33C7CA"/>
</g>
<mask id="mask26_76_4448" style="mask-type:luminance" maskUnits="userSpaceOnUse" x="455" y="72" width="49" height="45">
<path d="M502.112 96.3773L471.435 116.522C470.424 117.196 468.991 116.943 468.317 115.847L455.507 96.293C454.832 95.2816 455.085 93.8487 456.181 93.1744L486.858 73.1143C487.869 72.44 489.302 72.6929 489.976 73.7886L502.787 93.343C503.461 94.3544 503.124 95.703 502.112 96.3773Z" fill="white"/>
</mask>
<g mask="url(#mask26_76_4448)">
<path opacity="0.59" d="M478.767 94.2701L470.002 116.69L503.461 95.1973L478.767 94.2701Z" fill="#33C7CA"/>
</g>
<mask id="mask27_76_4448" style="mask-type:luminance" maskUnits="userSpaceOnUse" x="455" y="72" width="49" height="45">
<path d="M502.112 96.3773L471.435 116.522C470.424 117.196 468.991 116.943 468.317 115.847L455.507 96.293C454.832 95.2816 455.085 93.8487 456.181 93.1744L486.858 73.1143C487.869 72.44 489.302 72.6929 489.976 73.7886L502.787 93.343C503.461 94.3544 503.124 95.703 502.112 96.3773Z" fill="white"/>
</mask>
<g mask="url(#mask27_76_4448)">
<path d="M479.104 94.8601L469.581 117.786L503.966 95.1973L479.104 94.8601Z" fill="#33C7CA"/>
</g>
<mask id="mask28_76_4448" style="mask-type:luminance" maskUnits="userSpaceOnUse" x="455" y="72" width="49" height="45">
<path d="M502.112 96.3773L471.435 116.522C470.424 117.196 468.991 116.943 468.317 115.847L455.507 96.293C454.832 95.2816 455.085 93.8487 456.181 93.1744L486.858 73.1143C487.869 72.44 489.302 72.6929 489.976 73.7886L502.787 93.343C503.461 94.3544 503.124 95.703 502.112 96.3773Z" fill="white"/>
</mask>
<g mask="url(#mask28_76_4448)">
<path opacity="0.59" d="M479.863 100.002L459.721 99.0744C458.962 99.0744 457.951 98.7373 457.445 98.2316L455.001 95.1973L489.049 72.8615L490.566 76.0643C490.903 76.7386 491.072 78.0872 490.819 78.7615L483.571 97.5573C482.981 99.0744 481.464 100.086 479.863 100.002Z" fill="#33C7CA"/>
</g>
<mask id="mask29_76_4448" style="mask-type:luminance" maskUnits="userSpaceOnUse" x="455" y="72" width="49" height="45">
<path d="M502.112 96.3773L471.435 116.522C470.424 117.196 468.991 116.943 468.317 115.847L455.507 96.293C454.832 95.2816 455.085 93.8487 456.181 93.1744L486.858 73.1143C487.869 72.44 489.302 72.6929 489.976 73.7886L502.787 93.343C503.461 94.3544 503.124 95.703 502.112 96.3773Z" fill="white"/>
</mask>
<g mask="url(#mask29_76_4448)">
<path d="M479.358 99.1587L458.962 98.4002C458.204 98.4002 457.53 98.063 457.024 97.473L454.243 94.4387L488.712 71.85L490.398 75.5586C490.735 76.2329 490.735 76.9915 490.482 77.6658L483.066 96.6302C482.476 98.2316 480.959 99.243 479.358 99.1587Z" fill="#33C7CA"/>
</g>
<path d="M566.501 176.365C636.704 182.771 499.921 305.66 324.37 310.548C324.37 310.548 302.626 312.318 306.166 301.614" stroke="white" stroke-width="2.2565" stroke-miterlimit="10" stroke-dasharray="4.16 4.16"/>
<path d="M295.968 240.675C295.715 240.169 295.547 239.579 295.462 238.989C295.378 238.399 295.294 237.809 295.294 237.219H295.462C295.462 237.809 295.547 238.399 295.631 238.989C295.631 239.495 295.8 240.085 295.968 240.675Z" fill="white"/>
<path d="M295.716 231.994L296.559 228.538L296.98 228.706L296.053 231.994H295.716Z" fill="white"/>
<path d="M298.497 223.649L300.014 220.446L300.604 220.784L299.002 223.902L298.497 223.649Z" fill="white"/>
<path d="M302.71 215.895L304.565 212.945L305.323 213.451L303.385 216.316L302.71 215.895Z" fill="white"/>
<path d="M307.683 208.646L309.874 205.865L310.633 206.539L308.442 209.236L307.683 208.646Z" fill="white"/>
<path d="M313.246 201.819L315.521 199.206L316.448 199.965L314.088 202.578L313.246 201.819Z" fill="white"/>
<path d="M319.145 195.329L321.589 192.801L322.6 193.728L320.072 196.256L319.145 195.329Z" fill="white"/>
<path d="M325.381 189.092L327.91 186.648L328.921 187.743L326.393 190.103L325.381 189.092Z" fill="white"/>
<path d="M331.787 183.108L334.399 180.748L335.495 182.012L332.882 184.288L331.787 183.108Z" fill="white"/>
<path d="M338.445 177.292L341.142 175.101L342.153 176.365L339.456 178.556L338.445 177.292Z" fill="white"/>
<path d="M345.187 171.729L347.968 169.538L348.979 170.886L346.282 173.078L345.187 171.729Z" fill="white"/>
<path d="M352.098 166.25L354.879 164.143L355.974 165.576L353.193 167.683L352.098 166.25Z" fill="white"/>
<path d="M359.008 161.025L361.452 158.58L362.801 159.845L360.188 162.373L359.008 161.025Z" fill="white"/>
<path d="M364.908 154.703L366.931 151.922L368.448 153.018L366.341 155.883L364.908 154.703Z" fill="white"/>
<path d="M369.543 147.539C370.049 146.528 370.554 145.516 370.891 144.42L372.661 145.01C372.24 146.19 371.734 147.286 371.229 148.382L369.543 147.539Z" fill="white"/>
<path d="M371.819 139.7C371.735 138.689 371.482 137.677 370.976 136.835L372.577 135.907C373.252 137.087 373.673 138.352 373.673 139.7H371.819Z" fill="white"/>
<path d="M367.352 133.969L365.751 133.463C365.498 133.379 365.245 133.379 364.908 133.295L364.065 133.126L364.318 131.356L365.245 131.525C365.582 131.609 365.835 131.609 366.172 131.693L367.942 132.283L367.352 133.969Z" fill="white"/>
<path d="M359.093 132.873L355.637 133.21L355.384 131.44L359.008 131.187L359.093 132.873Z" fill="white"/>
<path d="M350.412 133.885L347.041 134.559L346.704 132.873L350.16 132.199L350.412 133.885Z" fill="white"/>
<path d="M341.9 135.655L338.529 136.497L338.107 134.98L341.563 134.053L341.9 135.655Z" fill="white"/>
<path d="M333.472 137.93L330.185 138.857L329.68 137.425L333.051 136.329L333.472 137.93Z" fill="white"/>
<path d="M325.128 140.459L321.842 141.555L321.336 140.206L324.707 139.026L325.128 140.459Z" fill="white"/>
<path d="M316.869 143.24L313.583 144.505L313.161 143.325L316.448 142.06L316.869 143.24Z" fill="white"/>
<path d="M308.695 146.359L305.492 147.708L304.986 146.696L308.273 145.263L308.695 146.359Z" fill="white"/>
<path d="M300.604 149.815L297.485 151.248L297.064 150.405L300.182 148.888L300.604 149.815Z" fill="white"/>
<path d="M292.766 153.608L289.648 155.209L289.311 154.619L292.345 152.849L292.766 153.608Z" fill="white"/>
<path d="M285.181 157.99C284.254 158.665 283.327 159.339 282.4 160.098L282.062 159.76C282.905 158.918 283.832 158.243 284.844 157.569L285.181 157.99Z" fill="white"/>
<path d="M279.956 164.312C280.124 164.818 280.461 165.239 280.967 165.576C281.473 165.913 281.978 166.166 282.484 166.335L282.4 166.503C281.81 166.335 281.304 166.082 280.799 165.745C280.293 165.408 279.787 164.986 279.619 164.312H279.956Z" fill="white"/>
<path d="M307.093 139.11C307.093 139.11 323.696 132.873 328.669 136.75C333.641 140.628 334.315 156.136 339.625 159.76C339.625 159.76 327.404 156.642 324.539 149.225C324.539 149.225 318.977 151.753 315.858 145.516C315.858 145.516 306.251 147.033 307.093 139.11Z" fill="white"/>
<path d="M288.046 130.092C288.046 130.092 282.315 113.319 276.163 111.97C270.011 110.622 257.622 119.893 251.47 118.123C251.47 118.123 261.583 125.54 269.252 123.096C269.252 123.096 270.854 128.996 277.596 127.395C277.512 127.479 282.484 135.823 288.046 130.092Z" fill="white"/>
<mask id="mask30_76_4448" style="mask-type:luminance" maskUnits="userSpaceOnUse" x="269" y="119" width="47" height="49">
<path d="M294.051 166.772L270.507 138.539C269.729 137.617 269.843 136.181 270.765 135.403L288.773 120.382C289.695 119.604 291.13 119.717 291.908 120.64L315.452 148.872C316.23 149.794 316.117 151.23 315.195 152.008L297.187 167.03C296.265 167.808 294.829 167.694 294.051 166.772Z" fill="white"/>
</mask>
<g mask="url(#mask30_76_4448)">
<path d="M317.554 139.806L280.228 122.338L268.406 147.605L305.732 165.073L317.554 139.806Z" fill="#FECD29"/>
</g>
<mask id="mask31_76_4448" style="mask-type:luminance" maskUnits="userSpaceOnUse" x="269" y="119" width="47" height="49">
<path d="M294.051 166.772L270.507 138.539C269.729 137.617 269.843 136.181 270.765 135.403L288.773 120.382C289.695 119.604 291.13 119.717 291.908 120.64L315.452 148.872C316.23 149.794 316.117 151.23 315.195 152.008L297.187 167.03C296.265 167.808 294.829 167.694 294.051 166.772Z" fill="white"/>
</mask>
<g mask="url(#mask31_76_4448)">
<path opacity="0.3" d="M317.554 139.806L280.228 122.338L268.406 147.605L305.732 165.073L317.554 139.806Z" fill="#FECD29"/>
</g>
<mask id="mask32_76_4448" style="mask-type:luminance" maskUnits="userSpaceOnUse" x="269" y="123" width="48" height="42">
<path d="M303.722 164.143L270.433 148.55C269.337 148.045 268.831 146.696 269.337 145.6L279.282 124.36C279.787 123.265 281.136 122.759 282.231 123.265L315.521 138.857C316.617 139.363 317.123 140.712 316.617 141.808L306.672 163.048C306.166 164.143 304.818 164.649 303.722 164.143Z" fill="white"/>
</mask>
<g mask="url(#mask32_76_4448)">
<path opacity="0.59" d="M293.271 143.072L269.589 147.37L305.408 164.649L293.271 143.072Z" fill="#FECD29"/>
</g>
<mask id="mask33_76_4448" style="mask-type:luminance" maskUnits="userSpaceOnUse" x="269" y="123" width="48" height="42">
<path d="M303.722 164.143L270.433 148.55C269.337 148.045 268.831 146.696 269.337 145.6L279.282 124.36C279.787 123.265 281.136 122.759 282.231 123.265L315.521 138.857C316.617 139.363 317.123 140.712 316.617 141.808L306.672 163.048C306.166 164.143 304.818 164.649 303.722 164.143Z" fill="white"/>
</mask>
<g mask="url(#mask33_76_4448)">
<path d="M292.935 143.746L268.41 147.623L305.745 165.07L292.935 143.746Z" fill="#FECD29"/>
</g>
<mask id="mask34_76_4448" style="mask-type:luminance" maskUnits="userSpaceOnUse" x="269" y="123" width="48" height="42">
<path d="M303.722 164.143L270.433 148.55C269.337 148.045 268.831 146.696 269.337 145.6L279.282 124.36C279.787 123.265 281.136 122.759 282.231 123.265L315.521 138.857C316.617 139.363 317.123 140.712 316.617 141.808L306.672 163.048C306.166 164.143 304.818 164.649 303.722 164.143Z" fill="white"/>
</mask>
<g mask="url(#mask34_76_4448)">
<path opacity="0.59" d="M288.973 147.118L279.197 129.417C278.86 128.743 278.523 127.732 278.776 127.057L280.124 123.349L317.038 140.628L315.1 143.578C314.678 144.168 313.667 145.095 312.908 145.179L292.934 148.972C291.333 149.225 289.732 148.466 288.973 147.118Z" fill="#FECD29"/>
</g>
<mask id="mask35_76_4448" style="mask-type:luminance" maskUnits="userSpaceOnUse" x="269" y="123" width="48" height="42">
<path d="M303.722 164.143L270.433 148.55C269.337 148.045 268.831 146.696 269.337 145.6L279.282 124.36C279.787 123.265 281.136 122.759 282.231 123.265L315.521 138.857C316.617 139.363 317.123 140.712 316.617 141.808L306.672 163.048C306.166 164.143 304.818 164.649 303.722 164.143Z" fill="white"/>
</mask>
<g mask="url(#mask35_76_4448)">
<path d="M289.395 146.19L279.366 128.49C279.029 127.816 278.945 127.057 279.113 126.383L280.209 122.422L317.544 139.869L315.268 143.24C314.847 143.83 314.173 144.252 313.499 144.42L293.44 148.045C291.755 148.382 290.154 147.623 289.395 146.19Z" fill="#FECD29"/>
</g>
<path d="M349.401 339.627C348.305 340.048 347.209 340.554 346.198 340.976L346.114 340.807C347.209 340.386 348.305 339.964 349.401 339.627Z" fill="white"/>
<path d="M341.479 343.251L338.36 344.853L338.107 344.347L341.226 342.914L341.479 343.251Z" fill="white"/>
<path d="M333.809 347.55L330.86 349.404L330.354 348.646L333.388 346.876L333.809 347.55Z" fill="white"/>
<path d="M326.73 352.607C325.887 353.366 324.96 354.124 324.202 354.967L323.359 354.124C324.202 353.281 325.129 352.523 326.056 351.764L326.73 352.607Z" fill="white"/>
<path d="M320.999 358.929C320.409 359.856 319.904 360.867 319.566 361.963L318.302 361.541C318.724 360.361 319.229 359.266 319.904 358.254L320.999 358.929Z" fill="white"/>
<path d="M319.398 366.767C319.65 367.863 320.072 368.874 320.662 369.801L319.313 370.56C318.723 369.464 318.218 368.284 317.965 367.104L319.398 366.767Z" fill="white"/>
<path d="M323.865 373.341C324.792 373.931 325.803 374.353 326.899 374.774L326.309 376.376C325.213 375.954 324.033 375.449 323.022 374.774L323.865 373.341Z" fill="white"/>
<path d="M331.787 376.123C332.882 376.376 334.062 376.544 335.158 376.713L334.905 378.483C333.725 378.314 332.545 378.061 331.365 377.809L331.787 376.123Z" fill="white"/>
<path d="M340.383 377.219L343.838 377.471L343.754 379.326L340.214 379.073L340.383 377.219Z" fill="white"/>
<path d="M349.063 377.556H352.603V379.41H349.063V377.556Z" fill="white"/>
<path d="M357.829 377.387L361.284 377.134L361.453 379.073L357.913 379.241L357.829 377.387Z" fill="white"/>
<path d="M366.509 376.713L369.965 376.376L370.218 378.23L366.678 378.567L366.509 376.713Z" fill="white"/>
<path d="M375.189 375.701L378.645 375.196L378.898 377.05L375.442 377.556L375.189 375.701Z" fill="white"/>
<path d="M383.786 374.437L387.242 373.763L387.579 375.533L384.123 376.207L383.786 374.437Z" fill="white"/>
<path d="M392.383 372.836L395.838 372.077L396.175 373.679L392.72 374.521L392.383 372.836Z" fill="white"/>
<path d="M400.979 370.897L404.35 370.139L404.687 371.571L401.316 372.499L400.979 370.897Z" fill="white"/>
<path d="M409.406 368.79L412.777 367.863L413.199 369.211L409.828 370.223L409.406 368.79Z" fill="white"/>
<path d="M417.834 366.43L421.206 365.419L421.543 366.514L418.172 367.61L417.834 366.43Z" fill="white"/>
<path d="M426.178 363.733L429.465 362.637L429.802 363.564L426.515 364.744L426.178 363.733Z" fill="white"/>
<path d="M434.437 360.867L437.724 359.603L437.977 360.277L434.774 361.626L434.437 360.867Z" fill="white"/>
<path d="M442.612 357.749L445.815 356.4L445.983 356.737L442.781 358.254L442.612 357.749Z" fill="white"/>
<path d="M450.703 354.293L453.906 352.86V352.944L450.787 354.461L450.703 354.293Z" fill="white"/>
</g>
<defs>
<linearGradient id="paint0_linear_76_4448" x1="437.01" y1="465.566" x2="437.01" y2="3.02036" gradientUnits="userSpaceOnUse">
<stop stop-color="#9A9A9A"/>
<stop offset="0.0936434" stop-color="#A2A2A2"/>
<stop offset="0.2383" stop-color="#B8B8B8"/>
<stop offset="0.415" stop-color="#DBDBDB"/>
<stop offset="0.447" stop-color="#E2E2E2"/>
<stop offset="1" stop-color="#C5C5C5"/>
</linearGradient>
<linearGradient id="paint1_linear_76_4448" x1="436.988" y1="24.1411" x2="436.988" y2="0" gradientUnits="userSpaceOnUse">
<stop stop-color="#404040"/>
<stop offset="0.2805" stop-color="#434343"/>
<stop offset="0.4483" stop-color="#4B4B4B"/>
<stop offset="0.5865" stop-color="#595959"/>
<stop offset="0.7086" stop-color="#6D6D6D"/>
<stop offset="0.8201" stop-color="#888888"/>
<stop offset="0.9223" stop-color="#A7A7A7"/>
<stop offset="1" stop-color="#C5C5C5"/>
</linearGradient>
<linearGradient id="paint2_linear_76_4448" x1="0" y1="473.911" x2="433.474" y2="473.911" gradientUnits="userSpaceOnUse">
<stop stop-color="#929292"/>
<stop offset="0.0139027" stop-color="#C1C1C1"/>
<stop offset="0.0271093" stop-color="#B2B2B2"/>
<stop offset="0.0486594" stop-color="#9C9C9C"/>
<stop offset="0.0714891" stop-color="#A4A4A4"/>
<stop offset="0.0909114" stop-color="#AFAFAF"/>
<stop offset="1" stop-color="#CFCFCF"/>
</linearGradient>
<linearGradient id="paint3_linear_76_4448" x1="0" y1="467.023" x2="866.948" y2="467.023" gradientUnits="userSpaceOnUse">
<stop offset="0.00545697" stop-color="#F8F8F8"/>
<stop offset="0.0638544" stop-color="#D0D0D0"/>
<stop offset="0.5025" stop-color="#F8F8F8"/>
<stop offset="0.8664" stop-color="#D0D0D0"/>
<stop offset="0.8755" stop-color="#D3D3D3"/>
<stop offset="0.9512" stop-color="#E9E9E9"/>
<stop offset="1" stop-color="#F1F1F1"/>
</linearGradient>
<linearGradient id="paint4_linear_76_4448" x1="433.474" y1="473.911" x2="866.948" y2="473.911" gradientUnits="userSpaceOnUse">
<stop stop-color="#CFCFCF"/>
<stop offset="0.9091" stop-color="#AFAFAF"/>
<stop offset="0.9285" stop-color="#A4A4A4"/>
<stop offset="0.9513" stop-color="#9C9C9C"/>
<stop offset="0.9729" stop-color="#B2B2B2"/>
<stop offset="0.9861" stop-color="#C1C1C1"/>
<stop offset="1" stop-color="#929292"/>
</linearGradient>
<linearGradient id="paint5_linear_76_4448" x1="0" y1="473.524" x2="433.474" y2="473.524" gradientUnits="userSpaceOnUse">
<stop stop-color="#666666"/>
<stop offset="0.0139027" stop-color="#D5D5D5"/>
<stop offset="0.0212916" stop-color="#BDBDBD"/>
<stop offset="0.0397326" stop-color="#868686"/>
<stop offset="0.0486594" stop-color="#707070"/>
<stop offset="0.0571972" stop-color="#787878"/>
<stop offset="0.0704656" stop-color="#8E8E8E"/>
<stop offset="0.0867233" stop-color="#B2B2B2"/>
<stop offset="0.0909114" stop-color="#BCBCBC"/>
<stop offset="1" stop-color="#F1F1F1"/>
</linearGradient>
<linearGradient id="paint6_linear_76_4448" x1="433.474" y1="473.524" x2="866.948" y2="473.524" gradientUnits="userSpaceOnUse">
<stop stop-color="#F1F1F1"/>
<stop offset="0.9091" stop-color="#BCBCBC"/>
<stop offset="0.9133" stop-color="#B2B2B2"/>
<stop offset="0.9295" stop-color="#8E8E8E"/>
<stop offset="0.9428" stop-color="#787878"/>
<stop offset="0.9513" stop-color="#707070"/>
<stop offset="0.9603" stop-color="#868686"/>
<stop offset="0.9787" stop-color="#BDBDBD"/>
<stop offset="0.9861" stop-color="#D5D5D5"/>
<stop offset="1" stop-color="#666666"/>
</linearGradient>
<linearGradient id="paint7_linear_76_4448" x1="371.776" y1="471.723" x2="495.172" y2="471.723" gradientUnits="userSpaceOnUse">
<stop stop-color="#9F9F9F"/>
<stop offset="0.0395349" stop-color="#ACACAC"/>
<stop offset="0.514" stop-color="#E5E5E5"/>
<stop offset="0.9628" stop-color="#ACACAC"/>
<stop offset="1" stop-color="#9F9F9F"/>
</linearGradient>
<linearGradient id="paint8_linear_76_4448" x1="371.29" y1="472.093" x2="495.658" y2="472.093" gradientUnits="userSpaceOnUse">
<stop offset="0.00041222" stop-color="#F7F7F7"/>
<stop offset="0.5247" stop-color="#F8F8F8"/>
<stop offset="1" stop-color="#F7F7F7"/>
</linearGradient>
<linearGradient id="paint9_linear_76_4448" x1="433.474" y1="492.035" x2="433.474" y2="480.472" gradientUnits="userSpaceOnUse">
<stop stop-color="#575757"/>
<stop offset="0.7389" stop-color="#B9B9B9"/>
<stop offset="0.8472" stop-color="#B6B6B6"/>
<stop offset="0.9363" stop-color="#ACACAC"/>
<stop offset="1" stop-color="#9F9F9F"/>
</linearGradient>
<clipPath id="clip0_76_4448">
<rect width="867" height="492" fill="white"/>
</clipPath>
</defs>
</svg>
