<svg xmlns="http://www.w3.org/2000/svg" width="150" height="70" viewBox="0 0 181 70" fill="none">
                        <path d="M42.8555 11.5764C44.254 9.50706 45.6126 7.49769 47.101 5.29837C48.5694 6.24807 49.9379 7.1278 51.4962 8.13749C50.1077 10.2868 48.7991 12.3062 47.4206 14.4355C48.3596 15.3652 49.3286 16.245 50.2176 17.2047C57.8993 25.5121 60.4266 35.2291 57.1002 46.0057C53.7738 56.7923 46.162 63.4503 35.1638 65.8895C28.9006 67.2791 22.6673 66.6193 16.8436 63.7402C15.4051 63.0304 14.7059 63.3003 13.9567 64.5899C13.1076 66.0695 12.0887 67.449 11.0098 69.0585C9.52145 68.0888 8.15293 67.2091 6.59461 66.1994C7.97312 64.0901 9.25174 62.1107 10.6303 59.9913C3.51792 53.7333 -0.238034 45.9557 0.0116967 36.4087C0.181514 30.2106 2.27925 24.6823 5.98526 19.7739C13.5671 9.72699 28.4511 4.5486 42.8555 11.5764ZM29.2802 26.6217C23.2367 26.5717 18.4119 31.2403 18.322 37.2284C18.2321 43.3465 22.937 48.225 29.0105 48.295C35.1838 48.365 40.2084 43.5265 40.2284 37.4983C40.2384 31.5102 35.3736 26.6717 29.2802 26.6217ZM18.6916 57.772C27.2623 62.9604 41.527 60.8911 48.6193 50.1844C55.8515 39.2678 51.746 25.2921 44.2041 20.1338C43.395 21.3134 42.6558 22.553 41.7567 23.6527C40.9276 24.6623 40.9975 25.3021 41.9066 26.2918C48.6093 33.6296 47.2608 45.5059 39.1096 51.1841C34.2149 54.593 28.9006 55.1928 23.2567 53.3134C22.7872 53.1535 21.9181 53.1535 21.6983 53.4334C20.5995 54.813 19.6705 56.3125 18.6916 57.772ZM14.0865 54.833C14.9856 53.4934 15.7447 52.2038 16.6538 51.0441C17.4429 50.0444 17.2132 49.3946 16.424 48.4949C10.6502 41.9969 10.86 32.0001 16.9734 25.812C21.8981 20.8235 27.8217 19.454 34.5445 21.3834C35.1039 21.5433 36.0629 21.6633 36.3026 21.3634C37.4214 19.9538 38.3504 18.3943 39.3493 16.8848C32.4567 12.7161 18.7815 13.026 10.84 23.3228C3.41803 32.9498 4.8365 47.6152 14.0865 54.833Z" fill="#634700" />
                        <path d="M92.1125 40.8174C90.0047 42.7168 87.7671 43.9364 85.1 44.2463C82.5128 44.5462 80.0155 44.3363 77.6081 43.3166C74.2517 41.887 72.5435 39.2379 72.3438 35.689C72.144 32.22 73.4625 29.4009 76.5093 27.5515C79.4361 25.772 82.7426 25.3522 86.039 24.9223C87.6872 24.7124 89.3354 24.4325 90.9937 24.3525C92.3522 24.2825 92.2323 23.4528 92.2623 22.5331C92.3023 21.4234 91.643 21.2734 90.7739 21.2734C86.5085 21.2834 82.2331 21.2734 77.9677 21.2734C75.5403 21.2734 75.5403 21.2634 75.5403 18.7742C75.5403 17.7245 75.6002 16.6649 75.5303 15.6152C75.4404 14.4156 75.9998 14.0757 77.0886 14.0757C84.6805 14.0957 92.2823 14.0957 99.8741 14.0757C101.043 14.0757 101.382 14.5455 101.372 15.6652C101.343 24.4325 101.333 33.1997 101.372 41.957C101.382 43.1966 100.953 43.6465 99.7442 43.6065C97.8563 43.5565 95.9583 43.4465 94.0903 43.6265C91.9127 43.8564 92.3322 42.2569 92.1125 40.8174ZM92.2423 31.9001C92.2723 24.5609 92.2323 24.5209 89.9648 29.9208C88.9359 30.1007 87.877 30.1807 86.8681 30.4306C85.6994 30.7205 84.5007 31.0304 83.4318 31.5602C81.8935 32.32 81.1343 33.9395 81.444 35.409C81.8036 37.0985 83.0322 37.8683 84.6006 38.1682C88.826 38.9579 92.1924 36.1788 92.2423 31.9001Z" fill="#634700" />
                        <path d="M105.039 14.1356C108.265 14.1356 111.132 14.0856 113.989 14.1856C114.408 14.1956 114.948 14.8654 115.178 15.3453C116.436 17.9444 117.565 20.6036 118.844 23.1828C119.133 23.7626 119.903 24.4924 120.412 24.4724C121.031 24.4424 121.87 23.8126 122.18 23.2128C123.469 20.6936 124.637 18.1144 125.746 15.5152C126.176 14.5055 126.765 14.0557 127.864 14.0657C130.501 14.1156 133.128 14.0856 136.135 14.0856C134.757 16.8148 133.588 19.1241 132.409 21.4334C131.45 23.3128 130.531 25.2022 124.502 27.0516C128.963 28.0313 128.983 28.8411 124.512 29.8407C131.56 33.7095 133.528 37.6283 135.516 41.5371C135.785 42.0669 136.025 42.6268 136.475 43.6165C134.657 43.6165 133.138 43.6464 131.62 43.6065C125.616 43.4665 127.365 44.6161 124.747 39.2178C123.848 37.3684 123.059 35.469 122.09 33.6695C121.811 33.1497 121.071 32.5699 120.542 32.5699C120.012 32.5699 119.233 33.1197 118.974 33.6396C117.525 36.5087 116.227 39.4577 114.818 42.3468C114.578 42.8267 114.039 43.4965 113.619 43.5065C110.752 43.6065 107.876 43.5565 104.679 43.5565C104.999 42.7667 105.178 42.2269 105.438 41.717C107.506 37.6683 109.614 33.6396 111.611 24.5508C111.911 28.931 111.911 27.9213 111.611 27.3115C109.773 23.5227 107.806 19.7839 105.898 16.035C105.658 15.5552 105.448 15.0453 105.039 14.1356Z" fill="#634700" />
                        <path d="M155.494 39.4877C156.873 37.8083 158.122 36.1888 159.5 34.6792C159.73 34.4293 160.549 34.5393 160.998 34.7192C163.136 35.589 165.184 36.6886 167.372 37.3984C168.331 37.7083 169.649 37.5483 170.578 37.0985C171.227 36.7886 171.827 35.6389 171.817 34.8792C171.807 34.2494 170.978 33.2997 170.318 33.0697C167.761 32.18 165.054 31.6802 162.527 30.7405C158.361 29.191 156.453 26.2619 156.653 22.2531C156.863 17.9844 159.23 15.1253 163.536 13.9357C169.23 12.3562 176.592 13.8757 180.288 17.5046C178.989 19.0441 177.72 20.6236 176.332 22.1032C176.112 22.3331 175.353 22.1831 174.903 22.0432C173.025 21.4334 171.197 20.6236 169.28 20.1838C168.48 20.0038 167.352 20.3437 166.642 20.8336C165.094 21.9132 165.464 24.0126 167.272 24.6124C168.85 25.1322 170.488 25.4621 172.087 25.912C173.045 26.1819 174.014 26.4518 174.943 26.7917C179.339 28.4212 181.177 31.1803 180.987 35.8089C180.827 39.7477 178.56 42.5868 174.294 43.6864C168.051 45.2959 162.197 44.2363 156.823 40.6674C156.363 40.3675 156.004 39.9476 155.494 39.4877Z" fill="#634700" />
                        <path d="M151.019 28.951C151.019 33.1697 150.939 37.3884 151.059 41.5971C151.109 43.2566 150.51 43.7364 148.961 43.6365C147.363 43.5365 145.745 43.5265 144.146 43.6365C142.498 43.7564 141.919 43.2066 141.949 41.4871C142.049 35.9389 141.989 30.3906 141.979 24.8523C141.979 22.643 141.959 22.543 139.771 22.633C138.113 22.703 137.464 22.1531 137.593 20.4537C137.723 18.8542 137.653 17.2347 137.613 15.6352C137.593 14.6255 137.923 14.0857 139.032 14.0957C142.578 14.1256 146.124 14.1256 149.67 14.0957C150.789 14.0857 151.049 14.6255 151.049 15.6452C150.989 20.0738 151.019 24.5124 151.019 28.951Z" fill="#634700" />
                        <path d="M73.5027 66.2994C73.5027 62.7205 73.5027 59.2916 73.5027 55.6927C76.0499 55.6927 78.8669 55.4728 81.6339 55.7627C83.7816 55.9826 84.2211 58.1219 82.8027 60.5512C82.9525 60.7311 83.1023 60.9611 83.3021 61.121C84.361 61.9407 84.8105 63.1404 84.2211 64.2C83.7217 65.0898 82.6828 65.9395 81.7138 66.2494C80.5451 66.6193 79.1966 66.3994 77.9279 66.4094C76.5993 66.4194 75.2708 66.3994 73.9422 66.3894C73.7724 66.3794 73.6126 66.3194 73.5027 66.2994ZM76.4195 64.22C77.7581 64.22 79.0267 64.3 80.2754 64.1701C80.655 64.1301 81.2344 63.5003 81.2443 63.1304C81.2543 62.7705 80.7149 62.1807 80.3153 62.0607C79.6461 61.8708 78.8969 62.0107 78.1776 61.9407C76.5794 61.7808 76.0799 62.5306 76.4195 64.22ZM76.3896 57.752C76.3097 58.7917 76.1598 59.6615 77.4285 59.6814C78.1976 59.6914 78.9768 59.7514 79.716 59.6015C80.0656 59.5315 80.5551 58.9717 80.5351 58.6718C80.5151 58.3419 79.9857 57.832 79.6361 57.792C78.6172 57.6721 77.5683 57.752 76.3896 57.752Z" fill="#634700" />
                        <path d="M104.939 66.2694C104.939 62.6406 104.939 59.2416 104.939 55.6827C107.526 55.6827 110.353 55.4628 113.13 55.7527C115.297 55.9826 115.737 58.1819 114.239 60.5412C114.398 60.7111 114.648 60.8711 114.738 61.091C115.128 62.0607 115.767 63.0404 115.757 64.0201C115.747 65.3097 114.648 66.1695 113.409 66.2294C110.553 66.3594 107.686 66.2694 104.939 66.2694ZM107.835 64.2301C109.174 64.2301 110.403 64.33 111.591 64.1801C112.051 64.1201 112.431 63.5103 112.85 63.1504C112.411 62.7605 112.041 62.1907 111.531 62.0207C110.932 61.8208 110.213 61.9908 109.554 61.9408C108.005 61.8308 107.626 62.6406 107.835 64.2301ZM107.855 57.7621C107.925 59.6215 109.214 60.2513 111.312 59.6015C111.651 59.5015 112.151 58.9917 112.101 58.7818C112.011 58.4019 111.591 57.842 111.262 57.8121C110.143 57.6921 108.994 57.7621 107.855 57.7621Z" fill="#634700" />
                        <path d="M146.614 10.1369C143.617 10.1669 141.539 8.15749 141.499 5.20841C141.459 2.17936 143.587 -0.00996279 146.564 3.40963e-05C149.461 0.010031 151.608 2.15936 151.628 5.06846C151.638 7.97755 149.54 10.1069 146.614 10.1369Z" fill="#634700" />
                        <path d="M118.684 55.6027C121.481 55.6027 124.448 55.5727 127.414 55.6527C127.664 55.6627 128.144 56.4825 128.074 56.8523C127.994 57.2922 127.464 57.952 127.085 57.972C125.327 58.092 123.559 58.022 121.711 58.022C121.451 59.2616 121.631 59.9514 122.999 59.8914C124.158 59.8414 125.337 59.7814 126.475 59.9414C126.915 60.0014 127.275 60.6612 127.674 61.041C127.295 61.3809 126.935 61.9608 126.515 62.0107C125.367 62.1507 124.198 62.1207 123.039 62.0507C121.83 61.9808 121.431 62.5106 121.661 63.9301C123.299 63.9301 124.977 63.9401 126.665 63.9301C127.504 63.9201 128.204 63.9701 128.234 65.1098C128.263 66.3294 127.534 66.4194 126.615 66.4094C123.918 66.3894 121.231 66.3994 118.674 66.3994C118.684 62.7005 118.684 59.2616 118.684 55.6027Z" fill="#634700" />
                        <path d="M166.393 66.2094C164.614 66.5093 163.256 66.7593 162.657 64.9098C162.577 64.6499 162.057 64.4 161.728 64.38C160.349 64.32 158.961 64.32 157.572 64.39C157.252 64.4 156.773 64.6899 156.673 64.9598C156.034 66.8092 154.695 66.5093 153.107 66.1694C153.327 65.5796 153.476 65.0598 153.696 64.5799C154.865 62.0107 156.124 59.4715 157.212 56.8723C157.702 55.7127 158.471 55.5028 159.56 55.5527C160.609 55.6027 161.568 55.4728 162.117 56.8024C163.426 59.9014 164.894 62.9304 166.393 66.2094ZM159.66 58.1319C159.04 59.5815 158.601 60.6112 158.041 61.9208C159.32 61.8408 160.199 61.7908 161.308 61.7208C160.739 60.4812 160.289 59.5215 159.66 58.1319Z" fill="#634700" />
                        <path d="M140.37 55.8126C143.207 55.3028 143.267 55.3328 144.246 57.4721C145.085 59.3216 145.934 61.161 146.963 63.3903C147.952 61.201 148.761 59.4015 149.57 57.6021C150.609 55.3028 150.609 55.3028 153.456 55.7827C152.847 57.1222 152.268 58.4118 151.668 59.6914C150.779 61.6008 149.91 63.5203 148.971 65.4097C148.332 66.6793 145.665 66.9192 145.055 65.7196C143.437 62.5106 141.979 59.2316 140.37 55.8126Z" fill="#634700" />
                        <path d="M85.2997 55.7827C87.2076 55.3828 88.6061 55.3428 89.5851 57.0323C90.1045 57.922 90.8637 58.6618 91.543 59.5015C93.5908 58.122 94.1102 54.4231 97.8761 55.8827C96.8672 57.2022 95.9882 58.5418 94.9193 59.7015C93.5608 61.171 92.8016 62.7605 93.0813 64.7899C93.2212 65.8396 92.8815 66.4294 91.6428 66.4294C90.3942 66.4294 90.0546 65.8196 90.2144 64.7799C90.544 62.6605 89.655 61.061 88.2665 59.5615C87.2376 58.4519 86.3785 57.1723 85.2997 55.7827Z" fill="#634700" />
                        <path d="M131.15 60.931C131.15 59.8214 131.14 58.7117 131.15 57.6021C131.16 56.5824 130.851 55.4827 132.619 55.5227C134.257 55.5527 134.007 56.5624 134.007 57.5321C134.017 59.1416 134.047 60.7511 133.997 62.3506C133.967 63.3603 134.397 63.7502 135.376 63.7302C136.764 63.7102 138.143 63.7602 139.531 63.7302C140.48 63.7102 140.77 64.16 140.74 65.0598C140.72 65.9295 140.48 66.4093 139.511 66.3893C137.134 66.3594 134.747 66.3594 132.369 66.3893C131.41 66.3993 131.111 65.9495 131.14 65.0698C131.18 63.7002 131.15 62.3106 131.15 60.931Z" fill="#634700" />
                    </svg>